%TF.GenerationSoftware,KiCad,Pcbnew,7.0.2*%
%TF.CreationDate,2024-05-24T22:48:06-05:00*%
%TF.ProjectId,cube,63756265-2e6b-4696-9361-645f70636258,rev?*%
%TF.SameCoordinates,Original*%
%TF.FileFunction,Copper,L1,Top*%
%TF.FilePolarity,Positive*%
%FSLAX46Y46*%
G04 Gerber Fmt 4.6, Leading zero omitted, Abs format (unit mm)*
G04 Created by KiCad (PCBNEW 7.0.2) date 2024-05-24 22:48:06*
%MOMM*%
%LPD*%
G01*
G04 APERTURE LIST*
G04 Aperture macros list*
%AMRoundRect*
0 Rectangle with rounded corners*
0 $1 Rounding radius*
0 $2 $3 $4 $5 $6 $7 $8 $9 X,Y pos of 4 corners*
0 Add a 4 corners polygon primitive as box body*
4,1,4,$2,$3,$4,$5,$6,$7,$8,$9,$2,$3,0*
0 Add four circle primitives for the rounded corners*
1,1,$1+$1,$2,$3*
1,1,$1+$1,$4,$5*
1,1,$1+$1,$6,$7*
1,1,$1+$1,$8,$9*
0 Add four rect primitives between the rounded corners*
20,1,$1+$1,$2,$3,$4,$5,0*
20,1,$1+$1,$4,$5,$6,$7,0*
20,1,$1+$1,$6,$7,$8,$9,0*
20,1,$1+$1,$8,$9,$2,$3,0*%
G04 Aperture macros list end*
%TA.AperFunction,ComponentPad*%
%ADD10C,1.600000*%
%TD*%
%TA.AperFunction,ComponentPad*%
%ADD11R,1.050000X1.500000*%
%TD*%
%TA.AperFunction,ComponentPad*%
%ADD12O,1.050000X1.500000*%
%TD*%
%TA.AperFunction,ComponentPad*%
%ADD13O,1.600000X1.600000*%
%TD*%
%TA.AperFunction,ComponentPad*%
%ADD14R,1.700000X1.700000*%
%TD*%
%TA.AperFunction,ComponentPad*%
%ADD15O,1.700000X1.700000*%
%TD*%
%TA.AperFunction,ComponentPad*%
%ADD16RoundRect,0.200000X-0.600000X-0.600000X0.600000X-0.600000X0.600000X0.600000X-0.600000X0.600000X0*%
%TD*%
%TA.AperFunction,ComponentPad*%
%ADD17R,1.600000X1.600000*%
%TD*%
%TA.AperFunction,ComponentPad*%
%ADD18C,5.600000*%
%TD*%
%TA.AperFunction,ComponentPad*%
%ADD19R,1.905000X2.000000*%
%TD*%
%TA.AperFunction,ComponentPad*%
%ADD20O,1.905000X2.000000*%
%TD*%
%TA.AperFunction,ComponentPad*%
%ADD21R,1.800000X1.800000*%
%TD*%
%TA.AperFunction,ComponentPad*%
%ADD22C,1.800000*%
%TD*%
%TA.AperFunction,ViaPad*%
%ADD23C,0.800000*%
%TD*%
%TA.AperFunction,Conductor*%
%ADD24C,0.250000*%
%TD*%
G04 APERTURE END LIST*
D10*
%TO.P,C11,1*%
%TO.N,VCC*%
X153964000Y-88646000D03*
%TO.P,C11,2*%
%TO.N,GND*%
X158964000Y-88646000D03*
%TD*%
D11*
%TO.P,Q1,1,E*%
%TO.N,GND*%
X124714000Y-128016000D03*
D12*
%TO.P,Q1,2,B*%
%TO.N,Net-(Q1-B)*%
X125984000Y-128016000D03*
%TO.P,Q1,3,C*%
%TO.N,R0*%
X127254000Y-128016000D03*
%TD*%
D10*
%TO.P,R13,1*%
%TO.N,Net-(U2-QE)*%
X43180000Y-88900000D03*
D13*
%TO.P,R13,2*%
%TO.N,Net-(J2-Pin_5)*%
X33020000Y-88900000D03*
%TD*%
D10*
%TO.P,C7,1*%
%TO.N,+5V*%
X130770000Y-27940000D03*
%TO.P,C7,2*%
%TO.N,GND*%
X125770000Y-27940000D03*
%TD*%
%TO.P,R31,1*%
%TO.N,Net-(U4-QG)*%
X81280000Y-58420000D03*
D13*
%TO.P,R31,2*%
%TO.N,Net-(J4-Pin_7)*%
X71120000Y-58420000D03*
%TD*%
D10*
%TO.P,R4,1*%
%TO.N,Net-(U1-QD)*%
X43180000Y-43180000D03*
D13*
%TO.P,R4,2*%
%TO.N,Net-(J1-Pin_4)*%
X33020000Y-43180000D03*
%TD*%
D10*
%TO.P,C2,1*%
%TO.N,+5V*%
X92670000Y-27940000D03*
%TO.P,C2,2*%
%TO.N,GND*%
X87670000Y-27940000D03*
%TD*%
%TO.P,C5,1*%
%TO.N,+5V*%
X54570000Y-109220000D03*
%TO.P,C5,2*%
%TO.N,GND*%
X49570000Y-109220000D03*
%TD*%
%TO.P,R6,1*%
%TO.N,Net-(U1-QF)*%
X43180000Y-53340000D03*
D13*
%TO.P,R6,2*%
%TO.N,Net-(J1-Pin_6)*%
X33020000Y-53340000D03*
%TD*%
D10*
%TO.P,R20,1*%
%TO.N,Net-(U3-QD)*%
X43180000Y-124460000D03*
D13*
%TO.P,R20,2*%
%TO.N,Net-(J3-Pin_4)*%
X33020000Y-124460000D03*
%TD*%
D10*
%TO.P,R51,1*%
%TO.N,Net-(U7-QC)*%
X119380000Y-38100000D03*
D13*
%TO.P,R51,2*%
%TO.N,Net-(J7-Pin_3)*%
X109220000Y-38100000D03*
%TD*%
D10*
%TO.P,R1,1*%
%TO.N,Net-(U1-QA)*%
X43180000Y-27940000D03*
D13*
%TO.P,R1,2*%
%TO.N,Net-(J1-Pin_1)*%
X33020000Y-27940000D03*
%TD*%
D10*
%TO.P,R48,1*%
%TO.N,Net-(U6-QH)*%
X81280000Y-144780000D03*
D13*
%TO.P,R48,2*%
%TO.N,Net-(J6-Pin_8)*%
X71120000Y-144780000D03*
%TD*%
D14*
%TO.P,J7,1,Pin_1*%
%TO.N,Net-(J7-Pin_1)*%
X101600000Y-38100000D03*
D15*
%TO.P,J7,2,Pin_2*%
%TO.N,Net-(J7-Pin_2)*%
X101600000Y-40640000D03*
%TO.P,J7,3,Pin_3*%
%TO.N,Net-(J7-Pin_3)*%
X101600000Y-43180000D03*
%TO.P,J7,4,Pin_4*%
%TO.N,Net-(J7-Pin_4)*%
X101600000Y-45720000D03*
%TO.P,J7,5,Pin_5*%
%TO.N,Net-(J7-Pin_5)*%
X101600000Y-48260000D03*
%TO.P,J7,6,Pin_6*%
%TO.N,Net-(J7-Pin_6)*%
X101600000Y-50800000D03*
%TO.P,J7,7,Pin_7*%
%TO.N,Net-(J7-Pin_7)*%
X101600000Y-53340000D03*
%TO.P,J7,8,Pin_8*%
%TO.N,Net-(J7-Pin_8)*%
X101600000Y-55880000D03*
%TD*%
D14*
%TO.P,J1,1,Pin_1*%
%TO.N,Net-(J1-Pin_1)*%
X25400000Y-38100000D03*
D15*
%TO.P,J1,2,Pin_2*%
%TO.N,Net-(J1-Pin_2)*%
X25400000Y-40640000D03*
%TO.P,J1,3,Pin_3*%
%TO.N,Net-(J1-Pin_3)*%
X25400000Y-43180000D03*
%TO.P,J1,4,Pin_4*%
%TO.N,Net-(J1-Pin_4)*%
X25400000Y-45720000D03*
%TO.P,J1,5,Pin_5*%
%TO.N,Net-(J1-Pin_5)*%
X25400000Y-48260000D03*
%TO.P,J1,6,Pin_6*%
%TO.N,Net-(J1-Pin_6)*%
X25400000Y-50800000D03*
%TO.P,J1,7,Pin_7*%
%TO.N,Net-(J1-Pin_7)*%
X25400000Y-53340000D03*
%TO.P,J1,8,Pin_8*%
%TO.N,Net-(J1-Pin_8)*%
X25400000Y-55880000D03*
%TD*%
D10*
%TO.P,R26,1*%
%TO.N,Net-(U4-QB)*%
X81280000Y-33020000D03*
D13*
%TO.P,R26,2*%
%TO.N,Net-(J4-Pin_2)*%
X71120000Y-33020000D03*
%TD*%
D10*
%TO.P,R56,1*%
%TO.N,Net-(U7-QH)*%
X119380000Y-63500000D03*
D13*
%TO.P,R56,2*%
%TO.N,Net-(J7-Pin_8)*%
X109220000Y-63500000D03*
%TD*%
D11*
%TO.P,Q3,1,E*%
%TO.N,GND*%
X139954000Y-128016000D03*
D12*
%TO.P,Q3,2,B*%
%TO.N,Net-(Q3-B)*%
X141224000Y-128016000D03*
%TO.P,Q3,3,C*%
%TO.N,R2*%
X142494000Y-128016000D03*
%TD*%
D10*
%TO.P,R24,1*%
%TO.N,Net-(U3-QH)*%
X43180000Y-144780000D03*
D13*
%TO.P,R24,2*%
%TO.N,Net-(J3-Pin_8)*%
X33020000Y-144780000D03*
%TD*%
D10*
%TO.P,R25,1*%
%TO.N,Net-(U4-QA)*%
X81280000Y-27940000D03*
D13*
%TO.P,R25,2*%
%TO.N,Net-(J4-Pin_1)*%
X71120000Y-27940000D03*
%TD*%
D10*
%TO.P,R9,1*%
%TO.N,Net-(U2-QA)*%
X43180000Y-68580000D03*
D13*
%TO.P,R9,2*%
%TO.N,Net-(J2-Pin_1)*%
X33020000Y-68580000D03*
%TD*%
D10*
%TO.P,R68,1*%
%TO.N,Net-(U9-QA)*%
X134874000Y-110236000D03*
D13*
%TO.P,R68,2*%
%TO.N,Net-(Q1-B)*%
X134874000Y-120396000D03*
%TD*%
D10*
%TO.P,R54,1*%
%TO.N,Net-(U7-QF)*%
X119380000Y-53340000D03*
D13*
%TO.P,R54,2*%
%TO.N,Net-(J7-Pin_6)*%
X109220000Y-53340000D03*
%TD*%
D10*
%TO.P,R71,1*%
%TO.N,Net-(U9-QD)*%
X150114000Y-110236000D03*
D13*
%TO.P,R71,2*%
%TO.N,Net-(Q4-B)*%
X150114000Y-120396000D03*
%TD*%
D10*
%TO.P,R12,1*%
%TO.N,Net-(U2-QD)*%
X43180000Y-83820000D03*
D13*
%TO.P,R12,2*%
%TO.N,Net-(J2-Pin_4)*%
X33020000Y-83820000D03*
%TD*%
D10*
%TO.P,R42,1*%
%TO.N,Net-(U6-QB)*%
X81280000Y-114300000D03*
D13*
%TO.P,R42,2*%
%TO.N,Net-(J6-Pin_2)*%
X71120000Y-114300000D03*
%TD*%
D11*
%TO.P,Q2,1,E*%
%TO.N,GND*%
X132334000Y-128016000D03*
D12*
%TO.P,Q2,2,B*%
%TO.N,Net-(Q2-B)*%
X133604000Y-128016000D03*
%TO.P,Q2,3,C*%
%TO.N,R1*%
X134874000Y-128016000D03*
%TD*%
D10*
%TO.P,R30,1*%
%TO.N,Net-(U4-QF)*%
X81280000Y-53340000D03*
D13*
%TO.P,R30,2*%
%TO.N,Net-(J4-Pin_6)*%
X71120000Y-53340000D03*
%TD*%
D14*
%TO.P,J11,1,Pin_1*%
%TO.N,Net-(A2-GP7)*%
X147574000Y-45466000D03*
D15*
%TO.P,J11,2,Pin_2*%
%TO.N,Net-(A2-GP6)*%
X147574000Y-42926000D03*
%TO.P,J11,3,Pin_3*%
%TO.N,Net-(A2-GP5)*%
X147574000Y-40386000D03*
%TO.P,J11,4,Pin_4*%
%TO.N,Net-(A2-GP4)*%
X147574000Y-37846000D03*
%TO.P,J11,5,Pin_5*%
%TO.N,Net-(A2-GP3)*%
X147574000Y-35306000D03*
%TO.P,J11,6,Pin_6*%
%TO.N,Net-(A2-GP2)*%
X147574000Y-32766000D03*
%TO.P,J11,7,Pin_7*%
%TO.N,Net-(A2-GP1)*%
X147574000Y-30226000D03*
%TO.P,J11,8,Pin_8*%
%TO.N,Net-(A2-GP0)*%
X147574000Y-27686000D03*
%TD*%
D11*
%TO.P,Q5,1,E*%
%TO.N,GND*%
X155194000Y-128016000D03*
D12*
%TO.P,Q5,2,B*%
%TO.N,Net-(Q5-B)*%
X156464000Y-128016000D03*
%TO.P,Q5,3,C*%
%TO.N,R4*%
X157734000Y-128016000D03*
%TD*%
D10*
%TO.P,R72,1*%
%TO.N,Net-(U9-QF)*%
X160274000Y-110236000D03*
D13*
%TO.P,R72,2*%
%TO.N,Net-(Q6-B)*%
X160274000Y-120396000D03*
%TD*%
D10*
%TO.P,C6,1*%
%TO.N,+5V*%
X92670000Y-109220000D03*
%TO.P,C6,2*%
%TO.N,GND*%
X87670000Y-109220000D03*
%TD*%
%TO.P,R47,1*%
%TO.N,Net-(U6-QG)*%
X81280000Y-139700000D03*
D13*
%TO.P,R47,2*%
%TO.N,Net-(J6-Pin_7)*%
X71120000Y-139700000D03*
%TD*%
D10*
%TO.P,A2,1,GP0*%
%TO.N,Net-(A2-GP0)*%
X156718000Y-25908000D03*
%TO.P,A2,2,GP1*%
%TO.N,Net-(A2-GP1)*%
X156718000Y-28448000D03*
D16*
%TO.P,A2,3,GND*%
%TO.N,unconnected-(A2-GND-Pad3)*%
X156718000Y-30988000D03*
D10*
%TO.P,A2,4,GP2*%
%TO.N,Net-(A2-GP2)*%
X156718000Y-33528000D03*
%TO.P,A2,5,GP3*%
%TO.N,Net-(A2-GP3)*%
X156718000Y-36068000D03*
%TO.P,A2,6,GP4*%
%TO.N,Net-(A2-GP4)*%
X156718000Y-38608000D03*
%TO.P,A2,7,GP5*%
%TO.N,Net-(A2-GP5)*%
X156718000Y-41148000D03*
D16*
%TO.P,A2,8,GND*%
%TO.N,unconnected-(A2-GND-Pad8)*%
X156718000Y-43688000D03*
D10*
%TO.P,A2,9,GP6*%
%TO.N,Net-(A2-GP6)*%
X156718000Y-46228000D03*
%TO.P,A2,10,GP7*%
%TO.N,Net-(A2-GP7)*%
X156718000Y-48768000D03*
%TO.P,A2,11,GP8*%
%TO.N,unconnected-(A2-GP8-Pad11)*%
X156718000Y-51308000D03*
%TO.P,A2,12,GP9*%
%TO.N,DATA*%
X156718000Y-53848000D03*
D16*
%TO.P,A2,13,GND*%
%TO.N,unconnected-(A2-GND-Pad13)*%
X156718000Y-56388000D03*
D10*
%TO.P,A2,14,GP10*%
%TO.N,CLK*%
X156718000Y-58928000D03*
%TO.P,A2,15,GP11*%
%TO.N,LATCH*%
X156718000Y-61468000D03*
%TO.P,A2,16,GP12*%
%TO.N,unconnected-(A2-GP12-Pad16)*%
X156759881Y-64008000D03*
%TO.P,A2,17,GP13*%
%TO.N,LAYER_DATA*%
X156718000Y-66548000D03*
D16*
%TO.P,A2,18,GND*%
%TO.N,unconnected-(A2-GND-Pad18)*%
X156718000Y-69088000D03*
D10*
%TO.P,A2,19,GP14*%
%TO.N,LAYER_CLK*%
X156718000Y-71628000D03*
%TO.P,A2,20,GP15*%
%TO.N,LAYER_LATCH*%
X156718000Y-74168000D03*
%TO.P,A2,21,GP16*%
%TO.N,unconnected-(A2-GP16-Pad21)*%
X174498000Y-74168000D03*
%TO.P,A2,22,GP17*%
%TO.N,unconnected-(A2-GP17-Pad22)*%
X174498000Y-71628000D03*
D16*
%TO.P,A2,23,GND*%
%TO.N,unconnected-(A2-GND-Pad23)*%
X174498000Y-69088000D03*
D10*
%TO.P,A2,24,GP18*%
%TO.N,unconnected-(A2-GP18-Pad24)*%
X174498000Y-66548000D03*
%TO.P,A2,25,GP19*%
%TO.N,unconnected-(A2-GP19-Pad25)*%
X174498000Y-64008000D03*
%TO.P,A2,26,GP20*%
%TO.N,unconnected-(A2-GP20-Pad26)*%
X174498000Y-61468000D03*
%TO.P,A2,27,GP21*%
%TO.N,unconnected-(A2-GP21-Pad27)*%
X174498000Y-58928000D03*
D16*
%TO.P,A2,28,GND*%
%TO.N,unconnected-(A2-GND-Pad28)*%
X174498000Y-56388000D03*
D10*
%TO.P,A2,29,GP22*%
%TO.N,unconnected-(A2-GP22-Pad29)*%
X174498000Y-53848000D03*
%TO.P,A2,30,RUN*%
%TO.N,unconnected-(A2-RUN-Pad30)*%
X174498000Y-51308000D03*
%TO.P,A2,31,GP26*%
%TO.N,unconnected-(A2-GP26-Pad31)*%
X174498000Y-48768000D03*
%TO.P,A2,32,GP27*%
%TO.N,unconnected-(A2-GP27-Pad32)*%
X174498000Y-46228000D03*
D16*
%TO.P,A2,33,AGND*%
%TO.N,unconnected-(A2-AGND-Pad33)*%
X174498000Y-43688000D03*
D10*
%TO.P,A2,34,GP28*%
%TO.N,unconnected-(A2-GP28-Pad34)*%
X174498000Y-41148000D03*
%TO.P,A2,35,ADC_VREF*%
%TO.N,unconnected-(A2-ADC_VREF-Pad35)*%
X174498000Y-38608000D03*
%TO.P,A2,36,3V3_OUT*%
%TO.N,unconnected-(A2-3V3_OUT-Pad36)*%
X174498000Y-36068000D03*
%TO.P,A2,37,3V3_EN*%
%TO.N,unconnected-(A2-3V3_EN-Pad37)*%
X174498000Y-33528000D03*
D16*
%TO.P,A2,38,GND*%
%TO.N,GND*%
X174498000Y-30988000D03*
D10*
%TO.P,A2,39,VSYS*%
%TO.N,+5V*%
X174498000Y-28448000D03*
%TO.P,A2,40,VBUS*%
%TO.N,unconnected-(A2-VBUS-Pad40)*%
X174498000Y-25908000D03*
%TD*%
%TO.P,R64,1*%
%TO.N,Net-(U8-QH)*%
X119380000Y-104140000D03*
D13*
%TO.P,R64,2*%
%TO.N,Net-(J8-Pin_8)*%
X109220000Y-104140000D03*
%TD*%
D10*
%TO.P,R11,1*%
%TO.N,Net-(U2-QC)*%
X43180000Y-78740000D03*
D13*
%TO.P,R11,2*%
%TO.N,Net-(J2-Pin_3)*%
X33020000Y-78740000D03*
%TD*%
D10*
%TO.P,R55,1*%
%TO.N,Net-(U7-QG)*%
X119380000Y-58420000D03*
D13*
%TO.P,R55,2*%
%TO.N,Net-(J7-Pin_7)*%
X109220000Y-58420000D03*
%TD*%
D10*
%TO.P,R66,1*%
%TO.N,Net-(U9-QH)*%
X170434000Y-110236000D03*
D13*
%TO.P,R66,2*%
%TO.N,Net-(Q8-B)*%
X170434000Y-120396000D03*
%TD*%
D10*
%TO.P,C12,1*%
%TO.N,+5V*%
X173014000Y-88646000D03*
%TO.P,C12,2*%
%TO.N,GND*%
X178014000Y-88646000D03*
%TD*%
D11*
%TO.P,Q6,1,E*%
%TO.N,GND*%
X162814000Y-128016000D03*
D12*
%TO.P,Q6,2,B*%
%TO.N,Net-(Q6-B)*%
X164084000Y-128016000D03*
%TO.P,Q6,3,C*%
%TO.N,R5*%
X165354000Y-128016000D03*
%TD*%
D17*
%TO.P,U3,1,QB*%
%TO.N,Net-(U3-QB)*%
X48260000Y-114300000D03*
D13*
%TO.P,U3,2,QC*%
%TO.N,Net-(U3-QC)*%
X48260000Y-116840000D03*
%TO.P,U3,3,QD*%
%TO.N,Net-(U3-QD)*%
X48260000Y-119380000D03*
%TO.P,U3,4,QE*%
%TO.N,Net-(U3-QE)*%
X48260000Y-121920000D03*
%TO.P,U3,5,QF*%
%TO.N,Net-(U3-QF)*%
X48260000Y-124460000D03*
%TO.P,U3,6,QG*%
%TO.N,Net-(U3-QG)*%
X48260000Y-127000000D03*
%TO.P,U3,7,QH*%
%TO.N,Net-(U3-QH)*%
X48260000Y-129540000D03*
%TO.P,U3,8,GND*%
%TO.N,GND*%
X48260000Y-132080000D03*
%TO.P,U3,9,QH'*%
%TO.N,Net-(U3-QH')*%
X55880000Y-132080000D03*
%TO.P,U3,10,~{SRCLR}*%
%TO.N,+5V*%
X55880000Y-129540000D03*
%TO.P,U3,11,SRCLK*%
%TO.N,CLK*%
X55880000Y-127000000D03*
%TO.P,U3,12,RCLK*%
%TO.N,LATCH*%
X55880000Y-124460000D03*
%TO.P,U3,13,~{OE}*%
%TO.N,GND*%
X55880000Y-121920000D03*
%TO.P,U3,14,SER*%
%TO.N,Net-(U2-QH')*%
X55880000Y-119380000D03*
%TO.P,U3,15,QA*%
%TO.N,Net-(U3-QA)*%
X55880000Y-116840000D03*
%TO.P,U3,16,VCC*%
%TO.N,+5V*%
X55880000Y-114300000D03*
%TD*%
D10*
%TO.P,R40,1*%
%TO.N,Net-(U5-QH)*%
X81280000Y-104140000D03*
D13*
%TO.P,R40,2*%
%TO.N,Net-(J5-Pin_8)*%
X71120000Y-104140000D03*
%TD*%
D10*
%TO.P,R49,1*%
%TO.N,Net-(U7-QA)*%
X119380000Y-27940000D03*
D13*
%TO.P,R49,2*%
%TO.N,Net-(J7-Pin_1)*%
X109220000Y-27940000D03*
%TD*%
D10*
%TO.P,R46,1*%
%TO.N,Net-(U6-QF)*%
X81280000Y-134620000D03*
D13*
%TO.P,R46,2*%
%TO.N,Net-(J6-Pin_6)*%
X71120000Y-134620000D03*
%TD*%
D10*
%TO.P,R2,1*%
%TO.N,Net-(U1-QB)*%
X43180000Y-33020000D03*
D13*
%TO.P,R2,2*%
%TO.N,Net-(J1-Pin_2)*%
X33020000Y-33020000D03*
%TD*%
D10*
%TO.P,R50,1*%
%TO.N,Net-(U7-QB)*%
X119380000Y-33020000D03*
D13*
%TO.P,R50,2*%
%TO.N,Net-(J7-Pin_2)*%
X109220000Y-33020000D03*
%TD*%
D10*
%TO.P,R23,1*%
%TO.N,Net-(U3-QG)*%
X43180000Y-139700000D03*
D13*
%TO.P,R23,2*%
%TO.N,Net-(J3-Pin_7)*%
X33020000Y-139700000D03*
%TD*%
D10*
%TO.P,R5,1*%
%TO.N,Net-(U1-QE)*%
X43180000Y-48260000D03*
D13*
%TO.P,R5,2*%
%TO.N,Net-(J1-Pin_5)*%
X33020000Y-48260000D03*
%TD*%
D10*
%TO.P,C10,1*%
%TO.N,+5V*%
X54610000Y-27940000D03*
%TO.P,C10,2*%
%TO.N,GND*%
X49610000Y-27940000D03*
%TD*%
D14*
%TO.P,J4,1,Pin_1*%
%TO.N,Net-(J4-Pin_1)*%
X63500000Y-38100000D03*
D15*
%TO.P,J4,2,Pin_2*%
%TO.N,Net-(J4-Pin_2)*%
X63500000Y-40640000D03*
%TO.P,J4,3,Pin_3*%
%TO.N,Net-(J4-Pin_3)*%
X63500000Y-43180000D03*
%TO.P,J4,4,Pin_4*%
%TO.N,Net-(J4-Pin_4)*%
X63500000Y-45720000D03*
%TO.P,J4,5,Pin_5*%
%TO.N,Net-(J4-Pin_5)*%
X63500000Y-48260000D03*
%TO.P,J4,6,Pin_6*%
%TO.N,Net-(J4-Pin_6)*%
X63500000Y-50800000D03*
%TO.P,J4,7,Pin_7*%
%TO.N,Net-(J4-Pin_7)*%
X63500000Y-53340000D03*
%TO.P,J4,8,Pin_8*%
%TO.N,Net-(J4-Pin_8)*%
X63500000Y-55880000D03*
%TD*%
D14*
%TO.P,J2,1,Pin_1*%
%TO.N,Net-(J2-Pin_1)*%
X25400000Y-78740000D03*
D15*
%TO.P,J2,2,Pin_2*%
%TO.N,Net-(J2-Pin_2)*%
X25400000Y-81280000D03*
%TO.P,J2,3,Pin_3*%
%TO.N,Net-(J2-Pin_3)*%
X25400000Y-83820000D03*
%TO.P,J2,4,Pin_4*%
%TO.N,Net-(J2-Pin_4)*%
X25400000Y-86360000D03*
%TO.P,J2,5,Pin_5*%
%TO.N,Net-(J2-Pin_5)*%
X25400000Y-88900000D03*
%TO.P,J2,6,Pin_6*%
%TO.N,Net-(J2-Pin_6)*%
X25400000Y-91440000D03*
%TO.P,J2,7,Pin_7*%
%TO.N,Net-(J2-Pin_7)*%
X25400000Y-93980000D03*
%TO.P,J2,8,Pin_8*%
%TO.N,Net-(J2-Pin_8)*%
X25400000Y-96520000D03*
%TD*%
D10*
%TO.P,R36,1*%
%TO.N,Net-(U5-QD)*%
X81280000Y-83820000D03*
D13*
%TO.P,R36,2*%
%TO.N,Net-(J5-Pin_4)*%
X71120000Y-83820000D03*
%TD*%
D10*
%TO.P,R44,1*%
%TO.N,Net-(U6-QD)*%
X81280000Y-124460000D03*
D13*
%TO.P,R44,2*%
%TO.N,Net-(J6-Pin_4)*%
X71120000Y-124460000D03*
%TD*%
D10*
%TO.P,R3,1*%
%TO.N,Net-(U1-QC)*%
X43180000Y-38100000D03*
D13*
%TO.P,R3,2*%
%TO.N,Net-(J1-Pin_3)*%
X33020000Y-38100000D03*
%TD*%
D10*
%TO.P,R19,1*%
%TO.N,Net-(U3-QC)*%
X43180000Y-119380000D03*
D13*
%TO.P,R19,2*%
%TO.N,Net-(J3-Pin_3)*%
X33020000Y-119380000D03*
%TD*%
D17*
%TO.P,U6,1,QB*%
%TO.N,Net-(U6-QB)*%
X86360000Y-114300000D03*
D13*
%TO.P,U6,2,QC*%
%TO.N,Net-(U6-QC)*%
X86360000Y-116840000D03*
%TO.P,U6,3,QD*%
%TO.N,Net-(U6-QD)*%
X86360000Y-119380000D03*
%TO.P,U6,4,QE*%
%TO.N,Net-(U6-QE)*%
X86360000Y-121920000D03*
%TO.P,U6,5,QF*%
%TO.N,Net-(U6-QF)*%
X86360000Y-124460000D03*
%TO.P,U6,6,QG*%
%TO.N,Net-(U6-QG)*%
X86360000Y-127000000D03*
%TO.P,U6,7,QH*%
%TO.N,Net-(U6-QH)*%
X86360000Y-129540000D03*
%TO.P,U6,8,GND*%
%TO.N,GND*%
X86360000Y-132080000D03*
%TO.P,U6,9,QH'*%
%TO.N,Net-(U6-QH')*%
X93980000Y-132080000D03*
%TO.P,U6,10,~{SRCLR}*%
%TO.N,+5V*%
X93980000Y-129540000D03*
%TO.P,U6,11,SRCLK*%
%TO.N,CLK*%
X93980000Y-127000000D03*
%TO.P,U6,12,RCLK*%
%TO.N,LATCH*%
X93980000Y-124460000D03*
%TO.P,U6,13,~{OE}*%
%TO.N,GND*%
X93980000Y-121920000D03*
%TO.P,U6,14,SER*%
%TO.N,Net-(U5-QH')*%
X93980000Y-119380000D03*
%TO.P,U6,15,QA*%
%TO.N,Net-(U6-QA)*%
X93980000Y-116840000D03*
%TO.P,U6,16,VCC*%
%TO.N,+5V*%
X93980000Y-114300000D03*
%TD*%
D10*
%TO.P,R39,1*%
%TO.N,Net-(U5-QG)*%
X81280000Y-99060000D03*
D13*
%TO.P,R39,2*%
%TO.N,Net-(J5-Pin_7)*%
X71120000Y-99060000D03*
%TD*%
D10*
%TO.P,C3,1*%
%TO.N,+5V*%
X54570000Y-68580000D03*
%TO.P,C3,2*%
%TO.N,GND*%
X49570000Y-68580000D03*
%TD*%
D18*
%TO.P,H3,1*%
%TO.N,N/C*%
X184404000Y-145796000D03*
%TD*%
D10*
%TO.P,R43,1*%
%TO.N,Net-(U6-QC)*%
X81280000Y-119380000D03*
D13*
%TO.P,R43,2*%
%TO.N,Net-(J6-Pin_3)*%
X71120000Y-119380000D03*
%TD*%
D18*
%TO.P,H4,1*%
%TO.N,N/C*%
X23368000Y-145796000D03*
%TD*%
D10*
%TO.P,R27,1*%
%TO.N,Net-(U4-QC)*%
X81280000Y-38100000D03*
D13*
%TO.P,R27,2*%
%TO.N,Net-(J4-Pin_3)*%
X71120000Y-38100000D03*
%TD*%
D19*
%TO.P,U10,1,IN*%
%TO.N,VCC*%
X163322000Y-85344000D03*
D20*
%TO.P,U10,2,GND*%
%TO.N,GND*%
X165862000Y-85344000D03*
%TO.P,U10,3,OUT*%
%TO.N,+5V*%
X168402000Y-85344000D03*
%TD*%
D10*
%TO.P,R7,1*%
%TO.N,Net-(U1-QG)*%
X43180000Y-58420000D03*
D13*
%TO.P,R7,2*%
%TO.N,Net-(J1-Pin_7)*%
X33020000Y-58420000D03*
%TD*%
D17*
%TO.P,U1,1,QB*%
%TO.N,Net-(U1-QB)*%
X48260000Y-33020000D03*
D13*
%TO.P,U1,2,QC*%
%TO.N,Net-(U1-QC)*%
X48260000Y-35560000D03*
%TO.P,U1,3,QD*%
%TO.N,Net-(U1-QD)*%
X48260000Y-38100000D03*
%TO.P,U1,4,QE*%
%TO.N,Net-(U1-QE)*%
X48260000Y-40640000D03*
%TO.P,U1,5,QF*%
%TO.N,Net-(U1-QF)*%
X48260000Y-43180000D03*
%TO.P,U1,6,QG*%
%TO.N,Net-(U1-QG)*%
X48260000Y-45720000D03*
%TO.P,U1,7,QH*%
%TO.N,Net-(U1-QH)*%
X48260000Y-48260000D03*
%TO.P,U1,8,GND*%
%TO.N,GND*%
X48260000Y-50800000D03*
%TO.P,U1,9,QH'*%
%TO.N,Net-(U1-QH')*%
X55880000Y-50800000D03*
%TO.P,U1,10,~{SRCLR}*%
%TO.N,+5V*%
X55880000Y-48260000D03*
%TO.P,U1,11,SRCLK*%
%TO.N,CLK*%
X55880000Y-45720000D03*
%TO.P,U1,12,RCLK*%
%TO.N,LATCH*%
X55880000Y-43180000D03*
%TO.P,U1,13,~{OE}*%
%TO.N,GND*%
X55880000Y-40640000D03*
%TO.P,U1,14,SER*%
%TO.N,DATA*%
X55880000Y-38100000D03*
%TO.P,U1,15,QA*%
%TO.N,Net-(U1-QA)*%
X55880000Y-35560000D03*
%TO.P,U1,16,VCC*%
%TO.N,+5V*%
X55880000Y-33020000D03*
%TD*%
D10*
%TO.P,R16,1*%
%TO.N,Net-(U2-QH)*%
X43180000Y-104140000D03*
D13*
%TO.P,R16,2*%
%TO.N,Net-(J2-Pin_8)*%
X33020000Y-104140000D03*
%TD*%
D10*
%TO.P,R34,1*%
%TO.N,Net-(U5-QB)*%
X81280000Y-73660000D03*
D13*
%TO.P,R34,2*%
%TO.N,Net-(J5-Pin_2)*%
X71120000Y-73660000D03*
%TD*%
D14*
%TO.P,J10,1,Pin_1*%
%TO.N,R0*%
X142494000Y-140716000D03*
D15*
%TO.P,J10,2,Pin_2*%
%TO.N,R1*%
X145034000Y-140716000D03*
%TO.P,J10,3,Pin_3*%
%TO.N,R2*%
X147574000Y-140716000D03*
%TO.P,J10,4,Pin_4*%
%TO.N,R3*%
X150114000Y-140716000D03*
%TO.P,J10,5,Pin_5*%
%TO.N,R4*%
X152654000Y-140716000D03*
%TO.P,J10,6,Pin_6*%
%TO.N,R5*%
X155194000Y-140716000D03*
%TO.P,J10,7,Pin_7*%
%TO.N,R6*%
X157734000Y-140716000D03*
%TO.P,J10,8,Pin_8*%
%TO.N,R7*%
X160274000Y-140716000D03*
%TD*%
D10*
%TO.P,R8,1*%
%TO.N,Net-(U1-QH)*%
X43180000Y-63500000D03*
D13*
%TO.P,R8,2*%
%TO.N,Net-(J1-Pin_8)*%
X33020000Y-63500000D03*
%TD*%
D10*
%TO.P,R70,1*%
%TO.N,Net-(U9-QC)*%
X145034000Y-110236000D03*
D13*
%TO.P,R70,2*%
%TO.N,Net-(Q3-B)*%
X145034000Y-120396000D03*
%TD*%
D10*
%TO.P,R15,1*%
%TO.N,Net-(U2-QG)*%
X43180000Y-99060000D03*
D13*
%TO.P,R15,2*%
%TO.N,Net-(J2-Pin_7)*%
X33020000Y-99060000D03*
%TD*%
D11*
%TO.P,Q4,1,E*%
%TO.N,GND*%
X147574000Y-128016000D03*
D12*
%TO.P,Q4,2,B*%
%TO.N,Net-(Q4-B)*%
X148844000Y-128016000D03*
%TO.P,Q4,3,C*%
%TO.N,R3*%
X150114000Y-128016000D03*
%TD*%
D17*
%TO.P,U7,1,QB*%
%TO.N,Net-(U7-QB)*%
X124460000Y-33020000D03*
D13*
%TO.P,U7,2,QC*%
%TO.N,Net-(U7-QC)*%
X124460000Y-35560000D03*
%TO.P,U7,3,QD*%
%TO.N,Net-(U7-QD)*%
X124460000Y-38100000D03*
%TO.P,U7,4,QE*%
%TO.N,Net-(U7-QE)*%
X124460000Y-40640000D03*
%TO.P,U7,5,QF*%
%TO.N,Net-(U7-QF)*%
X124460000Y-43180000D03*
%TO.P,U7,6,QG*%
%TO.N,Net-(U7-QG)*%
X124460000Y-45720000D03*
%TO.P,U7,7,QH*%
%TO.N,Net-(U7-QH)*%
X124460000Y-48260000D03*
%TO.P,U7,8,GND*%
%TO.N,GND*%
X124460000Y-50800000D03*
%TO.P,U7,9,QH'*%
%TO.N,Net-(U7-QH')*%
X132080000Y-50800000D03*
%TO.P,U7,10,~{SRCLR}*%
%TO.N,+5V*%
X132080000Y-48260000D03*
%TO.P,U7,11,SRCLK*%
%TO.N,CLK*%
X132080000Y-45720000D03*
%TO.P,U7,12,RCLK*%
%TO.N,LATCH*%
X132080000Y-43180000D03*
%TO.P,U7,13,~{OE}*%
%TO.N,GND*%
X132080000Y-40640000D03*
%TO.P,U7,14,SER*%
%TO.N,Net-(U6-QH')*%
X132080000Y-38100000D03*
%TO.P,U7,15,QA*%
%TO.N,Net-(U7-QA)*%
X132080000Y-35560000D03*
%TO.P,U7,16,VCC*%
%TO.N,+5V*%
X132080000Y-33020000D03*
%TD*%
D10*
%TO.P,R38,1*%
%TO.N,Net-(U5-QF)*%
X81280000Y-93980000D03*
D13*
%TO.P,R38,2*%
%TO.N,Net-(J5-Pin_6)*%
X71120000Y-93980000D03*
%TD*%
D10*
%TO.P,R53,1*%
%TO.N,Net-(U7-QE)*%
X119380000Y-48260000D03*
D13*
%TO.P,R53,2*%
%TO.N,Net-(J7-Pin_5)*%
X109220000Y-48260000D03*
%TD*%
D17*
%TO.P,U2,1,QB*%
%TO.N,Net-(U2-QB)*%
X48260000Y-73660000D03*
D13*
%TO.P,U2,2,QC*%
%TO.N,Net-(U2-QC)*%
X48260000Y-76200000D03*
%TO.P,U2,3,QD*%
%TO.N,Net-(U2-QD)*%
X48260000Y-78740000D03*
%TO.P,U2,4,QE*%
%TO.N,Net-(U2-QE)*%
X48260000Y-81280000D03*
%TO.P,U2,5,QF*%
%TO.N,Net-(U2-QF)*%
X48260000Y-83820000D03*
%TO.P,U2,6,QG*%
%TO.N,Net-(U2-QG)*%
X48260000Y-86360000D03*
%TO.P,U2,7,QH*%
%TO.N,Net-(U2-QH)*%
X48260000Y-88900000D03*
%TO.P,U2,8,GND*%
%TO.N,GND*%
X48260000Y-91440000D03*
%TO.P,U2,9,QH'*%
%TO.N,Net-(U2-QH')*%
X55880000Y-91440000D03*
%TO.P,U2,10,~{SRCLR}*%
%TO.N,+5V*%
X55880000Y-88900000D03*
%TO.P,U2,11,SRCLK*%
%TO.N,CLK*%
X55880000Y-86360000D03*
%TO.P,U2,12,RCLK*%
%TO.N,LATCH*%
X55880000Y-83820000D03*
%TO.P,U2,13,~{OE}*%
%TO.N,GND*%
X55880000Y-81280000D03*
%TO.P,U2,14,SER*%
%TO.N,Net-(U1-QH')*%
X55880000Y-78740000D03*
%TO.P,U2,15,QA*%
%TO.N,Net-(U2-QA)*%
X55880000Y-76200000D03*
%TO.P,U2,16,VCC*%
%TO.N,+5V*%
X55880000Y-73660000D03*
%TD*%
D10*
%TO.P,R61,1*%
%TO.N,Net-(U8-QE)*%
X119380000Y-88900000D03*
D13*
%TO.P,R61,2*%
%TO.N,Net-(J8-Pin_5)*%
X109220000Y-88900000D03*
%TD*%
D10*
%TO.P,R58,1*%
%TO.N,Net-(U8-QB)*%
X119380000Y-73660000D03*
D13*
%TO.P,R58,2*%
%TO.N,Net-(J8-Pin_2)*%
X109220000Y-73660000D03*
%TD*%
D14*
%TO.P,J6,1,Pin_1*%
%TO.N,Net-(J6-Pin_1)*%
X63500000Y-119380000D03*
D15*
%TO.P,J6,2,Pin_2*%
%TO.N,Net-(J6-Pin_2)*%
X63500000Y-121920000D03*
%TO.P,J6,3,Pin_3*%
%TO.N,Net-(J6-Pin_3)*%
X63500000Y-124460000D03*
%TO.P,J6,4,Pin_4*%
%TO.N,Net-(J6-Pin_4)*%
X63500000Y-127000000D03*
%TO.P,J6,5,Pin_5*%
%TO.N,Net-(J6-Pin_5)*%
X63500000Y-129540000D03*
%TO.P,J6,6,Pin_6*%
%TO.N,Net-(J6-Pin_6)*%
X63500000Y-132080000D03*
%TO.P,J6,7,Pin_7*%
%TO.N,Net-(J6-Pin_7)*%
X63500000Y-134620000D03*
%TO.P,J6,8,Pin_8*%
%TO.N,Net-(J6-Pin_8)*%
X63500000Y-137160000D03*
%TD*%
D10*
%TO.P,R73,1*%
%TO.N,Net-(U9-QE)*%
X155194000Y-110236000D03*
D13*
%TO.P,R73,2*%
%TO.N,Net-(Q5-B)*%
X155194000Y-120396000D03*
%TD*%
D10*
%TO.P,R45,1*%
%TO.N,Net-(U6-QE)*%
X81280000Y-129540000D03*
D13*
%TO.P,R45,2*%
%TO.N,Net-(J6-Pin_5)*%
X71120000Y-129540000D03*
%TD*%
D10*
%TO.P,R59,1*%
%TO.N,Net-(U8-QC)*%
X119380000Y-78740000D03*
D13*
%TO.P,R59,2*%
%TO.N,Net-(J8-Pin_3)*%
X109220000Y-78740000D03*
%TD*%
D21*
%TO.P,D2,1,K*%
%TO.N,GND*%
X183896000Y-50805000D03*
D22*
%TO.P,D2,2,A*%
%TO.N,Net-(D2-A)*%
X183896000Y-48265000D03*
%TD*%
D10*
%TO.P,C4,1*%
%TO.N,+5V*%
X92670000Y-68580000D03*
%TO.P,C4,2*%
%TO.N,GND*%
X87670000Y-68580000D03*
%TD*%
%TO.P,R63,1*%
%TO.N,Net-(U8-QG)*%
X119380000Y-99060000D03*
D13*
%TO.P,R63,2*%
%TO.N,Net-(J8-Pin_7)*%
X109220000Y-99060000D03*
%TD*%
D17*
%TO.P,U4,1,QB*%
%TO.N,Net-(U4-QB)*%
X86360000Y-33020000D03*
D13*
%TO.P,U4,2,QC*%
%TO.N,Net-(U4-QC)*%
X86360000Y-35560000D03*
%TO.P,U4,3,QD*%
%TO.N,Net-(U4-QD)*%
X86360000Y-38100000D03*
%TO.P,U4,4,QE*%
%TO.N,Net-(U4-QE)*%
X86360000Y-40640000D03*
%TO.P,U4,5,QF*%
%TO.N,Net-(U4-QF)*%
X86360000Y-43180000D03*
%TO.P,U4,6,QG*%
%TO.N,Net-(U4-QG)*%
X86360000Y-45720000D03*
%TO.P,U4,7,QH*%
%TO.N,Net-(U4-QH)*%
X86360000Y-48260000D03*
%TO.P,U4,8,GND*%
%TO.N,GND*%
X86360000Y-50800000D03*
%TO.P,U4,9,QH'*%
%TO.N,Net-(U4-QH')*%
X93980000Y-50800000D03*
%TO.P,U4,10,~{SRCLR}*%
%TO.N,+5V*%
X93980000Y-48260000D03*
%TO.P,U4,11,SRCLK*%
%TO.N,CLK*%
X93980000Y-45720000D03*
%TO.P,U4,12,RCLK*%
%TO.N,LATCH*%
X93980000Y-43180000D03*
%TO.P,U4,13,~{OE}*%
%TO.N,GND*%
X93980000Y-40640000D03*
%TO.P,U4,14,SER*%
%TO.N,Net-(U3-QH')*%
X93980000Y-38100000D03*
%TO.P,U4,15,QA*%
%TO.N,Net-(U4-QA)*%
X93980000Y-35560000D03*
%TO.P,U4,16,VCC*%
%TO.N,+5V*%
X93980000Y-33020000D03*
%TD*%
D17*
%TO.P,U5,1,QB*%
%TO.N,Net-(U5-QB)*%
X86360000Y-73660000D03*
D13*
%TO.P,U5,2,QC*%
%TO.N,Net-(U5-QC)*%
X86360000Y-76200000D03*
%TO.P,U5,3,QD*%
%TO.N,Net-(U5-QD)*%
X86360000Y-78740000D03*
%TO.P,U5,4,QE*%
%TO.N,Net-(U5-QE)*%
X86360000Y-81280000D03*
%TO.P,U5,5,QF*%
%TO.N,Net-(U5-QF)*%
X86360000Y-83820000D03*
%TO.P,U5,6,QG*%
%TO.N,Net-(U5-QG)*%
X86360000Y-86360000D03*
%TO.P,U5,7,QH*%
%TO.N,Net-(U5-QH)*%
X86360000Y-88900000D03*
%TO.P,U5,8,GND*%
%TO.N,GND*%
X86360000Y-91440000D03*
%TO.P,U5,9,QH'*%
%TO.N,Net-(U5-QH')*%
X93980000Y-91440000D03*
%TO.P,U5,10,~{SRCLR}*%
%TO.N,+5V*%
X93980000Y-88900000D03*
%TO.P,U5,11,SRCLK*%
%TO.N,CLK*%
X93980000Y-86360000D03*
%TO.P,U5,12,RCLK*%
%TO.N,LATCH*%
X93980000Y-83820000D03*
%TO.P,U5,13,~{OE}*%
%TO.N,GND*%
X93980000Y-81280000D03*
%TO.P,U5,14,SER*%
%TO.N,Net-(U4-QH')*%
X93980000Y-78740000D03*
%TO.P,U5,15,QA*%
%TO.N,Net-(U5-QA)*%
X93980000Y-76200000D03*
%TO.P,U5,16,VCC*%
%TO.N,+5V*%
X93980000Y-73660000D03*
%TD*%
D10*
%TO.P,C8,1*%
%TO.N,+5V*%
X130770000Y-68580000D03*
%TO.P,C8,2*%
%TO.N,GND*%
X125770000Y-68580000D03*
%TD*%
%TO.P,R67,1*%
%TO.N,Net-(U9-QG)*%
X165354000Y-110236000D03*
D13*
%TO.P,R67,2*%
%TO.N,Net-(Q7-B)*%
X165354000Y-120396000D03*
%TD*%
D17*
%TO.P,U9,1,QB*%
%TO.N,Net-(U9-QB)*%
X142494000Y-105156000D03*
D13*
%TO.P,U9,2,QC*%
%TO.N,Net-(U9-QC)*%
X145034000Y-105156000D03*
%TO.P,U9,3,QD*%
%TO.N,Net-(U9-QD)*%
X147574000Y-105156000D03*
%TO.P,U9,4,QE*%
%TO.N,Net-(U9-QE)*%
X150114000Y-105156000D03*
%TO.P,U9,5,QF*%
%TO.N,Net-(U9-QF)*%
X152654000Y-105156000D03*
%TO.P,U9,6,QG*%
%TO.N,Net-(U9-QG)*%
X155194000Y-105156000D03*
%TO.P,U9,7,QH*%
%TO.N,Net-(U9-QH)*%
X157734000Y-105156000D03*
%TO.P,U9,8,GND*%
%TO.N,GND*%
X160274000Y-105156000D03*
%TO.P,U9,9,QH'*%
%TO.N,unconnected-(U9-QH'-Pad9)*%
X160274000Y-97536000D03*
%TO.P,U9,10,~{SRCLR}*%
%TO.N,+5V*%
X157734000Y-97536000D03*
%TO.P,U9,11,SRCLK*%
%TO.N,LAYER_CLK*%
X155194000Y-97536000D03*
%TO.P,U9,12,RCLK*%
%TO.N,LAYER_LATCH*%
X152654000Y-97536000D03*
%TO.P,U9,13,~{OE}*%
%TO.N,GND*%
X150114000Y-97536000D03*
%TO.P,U9,14,SER*%
%TO.N,LAYER_DATA*%
X147574000Y-97536000D03*
%TO.P,U9,15,QA*%
%TO.N,Net-(U9-QA)*%
X145034000Y-97536000D03*
%TO.P,U9,16,VCC*%
%TO.N,+5V*%
X142494000Y-97536000D03*
%TD*%
D17*
%TO.P,U8,1,QB*%
%TO.N,Net-(U8-QB)*%
X124460000Y-73660000D03*
D13*
%TO.P,U8,2,QC*%
%TO.N,Net-(U8-QC)*%
X124460000Y-76200000D03*
%TO.P,U8,3,QD*%
%TO.N,Net-(U8-QD)*%
X124460000Y-78740000D03*
%TO.P,U8,4,QE*%
%TO.N,Net-(U8-QE)*%
X124460000Y-81280000D03*
%TO.P,U8,5,QF*%
%TO.N,Net-(U8-QF)*%
X124460000Y-83820000D03*
%TO.P,U8,6,QG*%
%TO.N,Net-(U8-QG)*%
X124460000Y-86360000D03*
%TO.P,U8,7,QH*%
%TO.N,Net-(U8-QH)*%
X124460000Y-88900000D03*
%TO.P,U8,8,GND*%
%TO.N,GND*%
X124460000Y-91440000D03*
%TO.P,U8,9,QH'*%
%TO.N,unconnected-(U8-QH'-Pad9)*%
X132080000Y-91440000D03*
%TO.P,U8,10,~{SRCLR}*%
%TO.N,+5V*%
X132080000Y-88900000D03*
%TO.P,U8,11,SRCLK*%
%TO.N,CLK*%
X132080000Y-86360000D03*
%TO.P,U8,12,RCLK*%
%TO.N,LATCH*%
X132080000Y-83820000D03*
%TO.P,U8,13,~{OE}*%
%TO.N,GND*%
X132080000Y-81280000D03*
%TO.P,U8,14,SER*%
%TO.N,Net-(U7-QH')*%
X132080000Y-78740000D03*
%TO.P,U8,15,QA*%
%TO.N,Net-(U8-QA)*%
X132080000Y-76200000D03*
%TO.P,U8,16,VCC*%
%TO.N,+5V*%
X132080000Y-73660000D03*
%TD*%
D10*
%TO.P,R22,1*%
%TO.N,Net-(U3-QF)*%
X43180000Y-134620000D03*
D13*
%TO.P,R22,2*%
%TO.N,Net-(J3-Pin_6)*%
X33020000Y-134620000D03*
%TD*%
D10*
%TO.P,R10,1*%
%TO.N,Net-(U2-QB)*%
X43180000Y-73660000D03*
D13*
%TO.P,R10,2*%
%TO.N,Net-(J2-Pin_2)*%
X33020000Y-73660000D03*
%TD*%
D10*
%TO.P,R29,1*%
%TO.N,Net-(U4-QE)*%
X81280000Y-48260000D03*
D13*
%TO.P,R29,2*%
%TO.N,Net-(J4-Pin_5)*%
X71120000Y-48260000D03*
%TD*%
D10*
%TO.P,C1,1*%
%TO.N,+5V*%
X139232000Y-60706000D03*
%TO.P,C1,2*%
%TO.N,GND*%
X144232000Y-60706000D03*
%TD*%
%TO.P,R14,1*%
%TO.N,Net-(U2-QF)*%
X43180000Y-93980000D03*
D13*
%TO.P,R14,2*%
%TO.N,Net-(J2-Pin_6)*%
X33020000Y-93980000D03*
%TD*%
D10*
%TO.P,R17,1*%
%TO.N,Net-(U3-QA)*%
X43180000Y-109220000D03*
D13*
%TO.P,R17,2*%
%TO.N,Net-(J3-Pin_1)*%
X33020000Y-109220000D03*
%TD*%
D10*
%TO.P,R69,1*%
%TO.N,Net-(U9-QB)*%
X139954000Y-110236000D03*
D13*
%TO.P,R69,2*%
%TO.N,Net-(Q2-B)*%
X139954000Y-120396000D03*
%TD*%
D10*
%TO.P,R35,1*%
%TO.N,Net-(U5-QC)*%
X81280000Y-78740000D03*
D13*
%TO.P,R35,2*%
%TO.N,Net-(J5-Pin_3)*%
X71120000Y-78740000D03*
%TD*%
D10*
%TO.P,R41,1*%
%TO.N,Net-(U6-QA)*%
X81280000Y-109220000D03*
D13*
%TO.P,R41,2*%
%TO.N,Net-(J6-Pin_1)*%
X71120000Y-109220000D03*
%TD*%
D11*
%TO.P,Q7,1,E*%
%TO.N,GND*%
X170434000Y-128016000D03*
D12*
%TO.P,Q7,2,B*%
%TO.N,Net-(Q7-B)*%
X171704000Y-128016000D03*
%TO.P,Q7,3,C*%
%TO.N,R6*%
X172974000Y-128016000D03*
%TD*%
D14*
%TO.P,J8,1,Pin_1*%
%TO.N,Net-(J8-Pin_1)*%
X101600000Y-78740000D03*
D15*
%TO.P,J8,2,Pin_2*%
%TO.N,Net-(J8-Pin_2)*%
X101600000Y-81280000D03*
%TO.P,J8,3,Pin_3*%
%TO.N,Net-(J8-Pin_3)*%
X101600000Y-83820000D03*
%TO.P,J8,4,Pin_4*%
%TO.N,Net-(J8-Pin_4)*%
X101600000Y-86360000D03*
%TO.P,J8,5,Pin_5*%
%TO.N,Net-(J8-Pin_5)*%
X101600000Y-88900000D03*
%TO.P,J8,6,Pin_6*%
%TO.N,Net-(J8-Pin_6)*%
X101600000Y-91440000D03*
%TO.P,J8,7,Pin_7*%
%TO.N,Net-(J8-Pin_7)*%
X101600000Y-93980000D03*
%TO.P,J8,8,Pin_8*%
%TO.N,Net-(J8-Pin_8)*%
X101600000Y-96520000D03*
%TD*%
D10*
%TO.P,R32,1*%
%TO.N,Net-(U4-QH)*%
X81280000Y-63500000D03*
D13*
%TO.P,R32,2*%
%TO.N,Net-(J4-Pin_8)*%
X71120000Y-63500000D03*
%TD*%
D14*
%TO.P,J5,1,Pin_1*%
%TO.N,Net-(J5-Pin_1)*%
X63500000Y-78740000D03*
D15*
%TO.P,J5,2,Pin_2*%
%TO.N,Net-(J5-Pin_2)*%
X63500000Y-81280000D03*
%TO.P,J5,3,Pin_3*%
%TO.N,Net-(J5-Pin_3)*%
X63500000Y-83820000D03*
%TO.P,J5,4,Pin_4*%
%TO.N,Net-(J5-Pin_4)*%
X63500000Y-86360000D03*
%TO.P,J5,5,Pin_5*%
%TO.N,Net-(J5-Pin_5)*%
X63500000Y-88900000D03*
%TO.P,J5,6,Pin_6*%
%TO.N,Net-(J5-Pin_6)*%
X63500000Y-91440000D03*
%TO.P,J5,7,Pin_7*%
%TO.N,Net-(J5-Pin_7)*%
X63500000Y-93980000D03*
%TO.P,J5,8,Pin_8*%
%TO.N,Net-(J5-Pin_8)*%
X63500000Y-96520000D03*
%TD*%
D18*
%TO.P,H1,1*%
%TO.N,N/C*%
X23368000Y-28194000D03*
%TD*%
D14*
%TO.P,J3,1,Pin_1*%
%TO.N,Net-(J3-Pin_1)*%
X25400000Y-119380000D03*
D15*
%TO.P,J3,2,Pin_2*%
%TO.N,Net-(J3-Pin_2)*%
X25400000Y-121920000D03*
%TO.P,J3,3,Pin_3*%
%TO.N,Net-(J3-Pin_3)*%
X25400000Y-124460000D03*
%TO.P,J3,4,Pin_4*%
%TO.N,Net-(J3-Pin_4)*%
X25400000Y-127000000D03*
%TO.P,J3,5,Pin_5*%
%TO.N,Net-(J3-Pin_5)*%
X25400000Y-129540000D03*
%TO.P,J3,6,Pin_6*%
%TO.N,Net-(J3-Pin_6)*%
X25400000Y-132080000D03*
%TO.P,J3,7,Pin_7*%
%TO.N,Net-(J3-Pin_7)*%
X25400000Y-134620000D03*
%TO.P,J3,8,Pin_8*%
%TO.N,Net-(J3-Pin_8)*%
X25400000Y-137160000D03*
%TD*%
D10*
%TO.P,R37,1*%
%TO.N,Net-(U5-QE)*%
X81280000Y-88900000D03*
D13*
%TO.P,R37,2*%
%TO.N,Net-(J5-Pin_5)*%
X71120000Y-88900000D03*
%TD*%
D10*
%TO.P,R52,1*%
%TO.N,Net-(U7-QD)*%
X119380000Y-43180000D03*
D13*
%TO.P,R52,2*%
%TO.N,Net-(J7-Pin_4)*%
X109220000Y-43180000D03*
%TD*%
D10*
%TO.P,R74,1*%
%TO.N,+5V*%
X183896000Y-34544000D03*
D13*
%TO.P,R74,2*%
%TO.N,Net-(D2-A)*%
X183896000Y-44704000D03*
%TD*%
D10*
%TO.P,R28,1*%
%TO.N,Net-(U4-QD)*%
X81280000Y-43180000D03*
D13*
%TO.P,R28,2*%
%TO.N,Net-(J4-Pin_4)*%
X71120000Y-43180000D03*
%TD*%
D18*
%TO.P,H2,1*%
%TO.N,N/C*%
X184404000Y-28194000D03*
%TD*%
D10*
%TO.P,R57,1*%
%TO.N,Net-(U8-QA)*%
X119380000Y-68580000D03*
D13*
%TO.P,R57,2*%
%TO.N,Net-(J8-Pin_1)*%
X109220000Y-68580000D03*
%TD*%
D10*
%TO.P,R21,1*%
%TO.N,Net-(U3-QE)*%
X43180000Y-129540000D03*
D13*
%TO.P,R21,2*%
%TO.N,Net-(J3-Pin_5)*%
X33020000Y-129540000D03*
%TD*%
D10*
%TO.P,C9,1*%
%TO.N,+5V*%
X137414000Y-103846000D03*
%TO.P,C9,2*%
%TO.N,GND*%
X137414000Y-98846000D03*
%TD*%
D11*
%TO.P,Q8,1,E*%
%TO.N,GND*%
X178054000Y-128016000D03*
D12*
%TO.P,Q8,2,B*%
%TO.N,Net-(Q8-B)*%
X179324000Y-128016000D03*
%TO.P,Q8,3,C*%
%TO.N,R7*%
X180594000Y-128016000D03*
%TD*%
D10*
%TO.P,R62,1*%
%TO.N,Net-(U8-QF)*%
X119380000Y-93980000D03*
D13*
%TO.P,R62,2*%
%TO.N,Net-(J8-Pin_6)*%
X109220000Y-93980000D03*
%TD*%
D10*
%TO.P,R33,1*%
%TO.N,Net-(U5-QA)*%
X81280000Y-68580000D03*
D13*
%TO.P,R33,2*%
%TO.N,Net-(J5-Pin_1)*%
X71120000Y-68580000D03*
%TD*%
D10*
%TO.P,R60,1*%
%TO.N,Net-(U8-QD)*%
X119380000Y-83820000D03*
D13*
%TO.P,R60,2*%
%TO.N,Net-(J8-Pin_4)*%
X109220000Y-83820000D03*
%TD*%
D10*
%TO.P,R18,1*%
%TO.N,Net-(U3-QB)*%
X43180000Y-114300000D03*
D13*
%TO.P,R18,2*%
%TO.N,Net-(J3-Pin_2)*%
X33020000Y-114300000D03*
%TD*%
D23*
%TO.N,CLK*%
X129540000Y-83820000D03*
%TO.N,Net-(U3-QH')*%
X84074000Y-35052000D03*
%TO.N,Net-(U6-QH')*%
X126492000Y-38354000D03*
%TD*%
D24*
%TO.N,Net-(A2-GP0)*%
X154940000Y-27686000D02*
X156718000Y-25908000D01*
X147574000Y-27686000D02*
X154940000Y-27686000D01*
%TO.N,Net-(A2-GP1)*%
X154940000Y-30226000D02*
X156718000Y-28448000D01*
X147574000Y-30226000D02*
X154940000Y-30226000D01*
%TO.N,GND*%
X54755000Y-84945000D02*
X48260000Y-91440000D01*
X178014000Y-88646000D02*
X176889000Y-89771000D01*
X159149000Y-104031000D02*
X160274000Y-105156000D01*
X57150000Y-123190000D02*
X55880000Y-121920000D01*
X178014000Y-56687000D02*
X183896000Y-50805000D01*
X182671000Y-39161000D02*
X174498000Y-30988000D01*
X124714000Y-128016000D02*
X100076000Y-128016000D01*
X137414000Y-98846000D02*
X131866000Y-98846000D01*
X131866000Y-98846000D02*
X124460000Y-91440000D01*
X92855000Y-125585000D02*
X92855000Y-123045000D01*
X54755000Y-125585000D02*
X54755000Y-123045000D01*
X182671000Y-49580000D02*
X182671000Y-39161000D01*
X132080000Y-81280000D02*
X130955000Y-82405000D01*
X135233000Y-69705000D02*
X144232000Y-60706000D01*
X87485000Y-90315000D02*
X87485000Y-87775000D01*
X84995000Y-130715000D02*
X63013299Y-130715000D01*
X156609000Y-104031000D02*
X159149000Y-104031000D01*
X150114000Y-97536000D02*
X156609000Y-104031000D01*
X162560000Y-88646000D02*
X165862000Y-85344000D01*
X87485000Y-87775000D02*
X93980000Y-81280000D01*
X183896000Y-50805000D02*
X182671000Y-49580000D01*
X54755000Y-41765000D02*
X55880000Y-40640000D01*
X63013299Y-130715000D02*
X57150000Y-124851701D01*
X130955000Y-82405000D02*
X130955000Y-84945000D01*
X55880000Y-81280000D02*
X54755000Y-82405000D01*
X86360000Y-91440000D02*
X87485000Y-90315000D01*
X54755000Y-123045000D02*
X55880000Y-121920000D01*
X48260000Y-132080000D02*
X54755000Y-125585000D01*
X92855000Y-123045000D02*
X93980000Y-121920000D01*
X170289000Y-89771000D02*
X165862000Y-85344000D01*
X86360000Y-132080000D02*
X84995000Y-130715000D01*
X54755000Y-82405000D02*
X54755000Y-84945000D01*
X48260000Y-50800000D02*
X54755000Y-44305000D01*
X178014000Y-88646000D02*
X178014000Y-56687000D01*
X130955000Y-84945000D02*
X124460000Y-91440000D01*
X86360000Y-132080000D02*
X92855000Y-125585000D01*
X57150000Y-124851701D02*
X57150000Y-123190000D01*
X125770000Y-68580000D02*
X126895000Y-69705000D01*
X176889000Y-89771000D02*
X170289000Y-89771000D01*
X54755000Y-44305000D02*
X54755000Y-41765000D01*
X100076000Y-128016000D02*
X93980000Y-121920000D01*
X126895000Y-69705000D02*
X135233000Y-69705000D01*
X158964000Y-88646000D02*
X162560000Y-88646000D01*
%TO.N,Net-(A2-GP2)*%
X155956000Y-32766000D02*
X156718000Y-33528000D01*
X147574000Y-32766000D02*
X155956000Y-32766000D01*
%TO.N,Net-(A2-GP3)*%
X147574000Y-35306000D02*
X155956000Y-35306000D01*
X155956000Y-35306000D02*
X156718000Y-36068000D01*
%TO.N,CLK*%
X116664009Y-82695000D02*
X118914009Y-84945000D01*
X55880000Y-127000000D02*
X62135000Y-133255000D01*
X85235000Y-135745000D02*
X93980000Y-127000000D01*
X125875000Y-80155000D02*
X129540000Y-83820000D01*
X123994009Y-80155000D02*
X125875000Y-80155000D01*
X102203000Y-84995000D02*
X104503000Y-82695000D01*
X63986701Y-133255000D02*
X66476701Y-135745000D01*
X120135991Y-84945000D02*
X123335000Y-81745991D01*
X93980000Y-86360000D02*
X95345000Y-84995000D01*
X132080000Y-45720000D02*
X143510000Y-45720000D01*
X66476701Y-135745000D02*
X85235000Y-135745000D01*
X104503000Y-82695000D02*
X116664009Y-82695000D01*
X143510000Y-45720000D02*
X156718000Y-58928000D01*
X118914009Y-84945000D02*
X120135991Y-84945000D01*
X123335000Y-80814009D02*
X123994009Y-80155000D01*
X123335000Y-81745991D02*
X123335000Y-80814009D01*
X62135000Y-133255000D02*
X63986701Y-133255000D01*
X95345000Y-84995000D02*
X102203000Y-84995000D01*
%TO.N,LATCH*%
X90075000Y-47085000D02*
X93980000Y-43180000D01*
X59785000Y-47085000D02*
X90075000Y-47085000D01*
X131614009Y-46845000D02*
X130810000Y-46040991D01*
X142095000Y-46845000D02*
X131614009Y-46845000D01*
X128175000Y-47085000D02*
X132080000Y-43180000D01*
X97885000Y-47085000D02*
X128175000Y-47085000D01*
X55880000Y-43180000D02*
X59785000Y-47085000D01*
X93980000Y-43180000D02*
X97885000Y-47085000D01*
X130810000Y-46040991D02*
X130810000Y-44450000D01*
X130810000Y-44450000D02*
X132080000Y-43180000D01*
X156718000Y-61468000D02*
X142095000Y-46845000D01*
%TO.N,Net-(A2-GP4)*%
X147574000Y-37846000D02*
X155956000Y-37846000D01*
X155956000Y-37846000D02*
X156718000Y-38608000D01*
%TO.N,LAYER_DATA*%
X147574000Y-75692000D02*
X156718000Y-66548000D01*
X147574000Y-97536000D02*
X147574000Y-75692000D01*
%TO.N,LAYER_CLK*%
X155194000Y-97536000D02*
X152839000Y-95181000D01*
X152839000Y-79637991D02*
X157988000Y-74488991D01*
X157988000Y-74488991D02*
X157988000Y-72898000D01*
X152839000Y-95181000D02*
X152839000Y-79637991D01*
X157988000Y-72898000D02*
X156718000Y-71628000D01*
%TO.N,LAYER_LATCH*%
X151638000Y-96520000D02*
X151638000Y-79248000D01*
X151638000Y-79248000D02*
X156718000Y-74168000D01*
X152654000Y-97536000D02*
X151638000Y-96520000D01*
%TO.N,Net-(A2-GP5)*%
X147574000Y-40386000D02*
X155956000Y-40386000D01*
X155956000Y-40386000D02*
X156718000Y-41148000D01*
%TO.N,Net-(A2-GP6)*%
X153416000Y-42926000D02*
X156718000Y-46228000D01*
X147574000Y-42926000D02*
X153416000Y-42926000D01*
%TO.N,Net-(A2-GP7)*%
X156718000Y-48768000D02*
X150876000Y-48768000D01*
X150876000Y-48768000D02*
X147574000Y-45466000D01*
%TO.N,+5V*%
X93795000Y-26815000D02*
X92670000Y-27940000D01*
X171704000Y-88646000D02*
X168402000Y-85344000D01*
X148685000Y-31591000D02*
X133509000Y-31591000D01*
X139232000Y-55412000D02*
X139232000Y-60706000D01*
X130770000Y-27940000D02*
X130770000Y-31710000D01*
X55735000Y-26815000D02*
X54610000Y-27940000D01*
X92670000Y-27940000D02*
X92670000Y-31710000D01*
X183896000Y-34544000D02*
X180594000Y-34544000D01*
X139232000Y-60706000D02*
X131358000Y-68580000D01*
X55880000Y-29210000D02*
X54610000Y-27940000D01*
X91545000Y-26815000D02*
X55735000Y-26815000D01*
X130770000Y-27940000D02*
X129645000Y-26815000D01*
X129645000Y-26815000D02*
X93795000Y-26815000D01*
X92670000Y-27940000D02*
X91545000Y-26815000D01*
X149207000Y-32113000D02*
X148685000Y-31591000D01*
X55880000Y-33020000D02*
X55880000Y-29210000D01*
X170833000Y-32113000D02*
X149207000Y-32113000D01*
X180594000Y-34544000D02*
X174498000Y-28448000D01*
X132080000Y-48260000D02*
X139232000Y-55412000D01*
X131358000Y-68580000D02*
X130770000Y-68580000D01*
X133509000Y-31591000D02*
X132080000Y-33020000D01*
X130770000Y-31710000D02*
X132080000Y-33020000D01*
X174498000Y-28448000D02*
X170833000Y-32113000D01*
X92670000Y-31710000D02*
X93980000Y-33020000D01*
X173014000Y-88646000D02*
X171704000Y-88646000D01*
%TO.N,Net-(J1-Pin_1)*%
X25400000Y-38100000D02*
X25400000Y-35560000D01*
X25400000Y-35560000D02*
X33020000Y-27940000D01*
%TO.N,Net-(J1-Pin_2)*%
X25400000Y-40640000D02*
X33020000Y-33020000D01*
%TO.N,Net-(J1-Pin_3)*%
X25400000Y-43180000D02*
X30480000Y-38100000D01*
X30480000Y-38100000D02*
X33020000Y-38100000D01*
%TO.N,Net-(J1-Pin_4)*%
X27940000Y-43180000D02*
X33020000Y-43180000D01*
X25400000Y-45720000D02*
X27940000Y-43180000D01*
%TO.N,Net-(J1-Pin_5)*%
X25400000Y-48260000D02*
X33020000Y-48260000D01*
%TO.N,Net-(J1-Pin_6)*%
X30480000Y-50800000D02*
X33020000Y-53340000D01*
X25400000Y-50800000D02*
X30480000Y-50800000D01*
%TO.N,Net-(J1-Pin_7)*%
X30480000Y-58420000D02*
X25400000Y-53340000D01*
X33020000Y-58420000D02*
X30480000Y-58420000D01*
%TO.N,Net-(J1-Pin_8)*%
X25400000Y-55880000D02*
X33020000Y-63500000D01*
%TO.N,Net-(J2-Pin_1)*%
X25400000Y-78740000D02*
X25400000Y-76200000D01*
X25400000Y-76200000D02*
X33020000Y-68580000D01*
%TO.N,Net-(J2-Pin_2)*%
X25400000Y-81280000D02*
X33020000Y-73660000D01*
%TO.N,Net-(J2-Pin_3)*%
X25400000Y-83820000D02*
X30480000Y-78740000D01*
X30480000Y-78740000D02*
X33020000Y-78740000D01*
%TO.N,Net-(J2-Pin_4)*%
X27940000Y-83820000D02*
X33020000Y-83820000D01*
X25400000Y-86360000D02*
X27940000Y-83820000D01*
%TO.N,Net-(J2-Pin_5)*%
X25400000Y-88900000D02*
X33020000Y-88900000D01*
%TO.N,Net-(J2-Pin_6)*%
X30480000Y-91440000D02*
X33020000Y-93980000D01*
X25400000Y-91440000D02*
X30480000Y-91440000D01*
%TO.N,Net-(J2-Pin_7)*%
X25400000Y-93980000D02*
X27940000Y-93980000D01*
X27940000Y-93980000D02*
X33020000Y-99060000D01*
%TO.N,Net-(J2-Pin_8)*%
X25400000Y-96520000D02*
X33020000Y-104140000D01*
%TO.N,Net-(J3-Pin_1)*%
X25400000Y-116840000D02*
X33020000Y-109220000D01*
X25400000Y-119380000D02*
X25400000Y-116840000D01*
%TO.N,Net-(J3-Pin_2)*%
X25400000Y-121920000D02*
X33020000Y-114300000D01*
%TO.N,Net-(J3-Pin_3)*%
X25400000Y-124460000D02*
X30480000Y-119380000D01*
X30480000Y-119380000D02*
X33020000Y-119380000D01*
%TO.N,Net-(J3-Pin_4)*%
X27940000Y-124460000D02*
X33020000Y-124460000D01*
X25400000Y-127000000D02*
X27940000Y-124460000D01*
%TO.N,Net-(J3-Pin_5)*%
X25400000Y-129540000D02*
X33020000Y-129540000D01*
%TO.N,Net-(J3-Pin_6)*%
X30480000Y-132080000D02*
X33020000Y-134620000D01*
X25400000Y-132080000D02*
X30480000Y-132080000D01*
%TO.N,Net-(J3-Pin_7)*%
X25400000Y-134620000D02*
X27940000Y-134620000D01*
X27940000Y-134620000D02*
X33020000Y-139700000D01*
%TO.N,Net-(J3-Pin_8)*%
X25400000Y-137160000D02*
X33020000Y-144780000D01*
%TO.N,Net-(J4-Pin_1)*%
X63500000Y-35560000D02*
X71120000Y-27940000D01*
X63500000Y-38100000D02*
X63500000Y-35560000D01*
%TO.N,Net-(J4-Pin_2)*%
X63500000Y-40640000D02*
X71120000Y-33020000D01*
%TO.N,Net-(J4-Pin_3)*%
X63500000Y-43180000D02*
X68580000Y-38100000D01*
X68580000Y-38100000D02*
X71120000Y-38100000D01*
%TO.N,Net-(J4-Pin_4)*%
X68580000Y-45720000D02*
X71120000Y-43180000D01*
X63500000Y-45720000D02*
X68580000Y-45720000D01*
%TO.N,Net-(J4-Pin_5)*%
X63500000Y-48260000D02*
X71120000Y-48260000D01*
%TO.N,Net-(J4-Pin_6)*%
X68580000Y-50800000D02*
X71120000Y-53340000D01*
X63500000Y-50800000D02*
X68580000Y-50800000D01*
%TO.N,Net-(J4-Pin_7)*%
X66040000Y-53340000D02*
X71120000Y-58420000D01*
X63500000Y-53340000D02*
X66040000Y-53340000D01*
%TO.N,Net-(J4-Pin_8)*%
X63500000Y-55880000D02*
X71120000Y-63500000D01*
%TO.N,Net-(J5-Pin_1)*%
X63500000Y-76200000D02*
X71120000Y-68580000D01*
X63500000Y-78740000D02*
X63500000Y-76200000D01*
%TO.N,Net-(J5-Pin_2)*%
X63500000Y-81280000D02*
X71120000Y-73660000D01*
%TO.N,Net-(J5-Pin_3)*%
X63500000Y-83820000D02*
X68580000Y-78740000D01*
X68580000Y-78740000D02*
X71120000Y-78740000D01*
%TO.N,Net-(J5-Pin_4)*%
X63500000Y-86360000D02*
X66040000Y-83820000D01*
X66040000Y-83820000D02*
X71120000Y-83820000D01*
%TO.N,Net-(J5-Pin_5)*%
X63500000Y-88900000D02*
X71120000Y-88900000D01*
%TO.N,Net-(J5-Pin_6)*%
X63500000Y-91440000D02*
X68580000Y-91440000D01*
X68580000Y-91440000D02*
X71120000Y-93980000D01*
%TO.N,Net-(J5-Pin_7)*%
X68580000Y-99060000D02*
X71120000Y-99060000D01*
X63500000Y-93980000D02*
X68580000Y-99060000D01*
%TO.N,Net-(J5-Pin_8)*%
X63500000Y-96520000D02*
X71120000Y-104140000D01*
%TO.N,Net-(J6-Pin_1)*%
X63500000Y-116840000D02*
X71120000Y-109220000D01*
X63500000Y-119380000D02*
X63500000Y-116840000D01*
%TO.N,Net-(J6-Pin_2)*%
X63500000Y-121920000D02*
X71120000Y-114300000D01*
%TO.N,Net-(J6-Pin_3)*%
X71120000Y-119380000D02*
X68580000Y-119380000D01*
X68580000Y-119380000D02*
X63500000Y-124460000D01*
%TO.N,Net-(J6-Pin_4)*%
X63500000Y-127000000D02*
X68580000Y-127000000D01*
X68580000Y-127000000D02*
X71120000Y-124460000D01*
%TO.N,Net-(J6-Pin_5)*%
X63500000Y-129540000D02*
X71120000Y-129540000D01*
%TO.N,Net-(J6-Pin_6)*%
X66040000Y-134620000D02*
X71120000Y-134620000D01*
X63500000Y-132080000D02*
X66040000Y-134620000D01*
%TO.N,Net-(J6-Pin_7)*%
X63500000Y-134620000D02*
X68580000Y-139700000D01*
X68580000Y-139700000D02*
X71120000Y-139700000D01*
%TO.N,Net-(J6-Pin_8)*%
X63500000Y-137160000D02*
X71120000Y-144780000D01*
%TO.N,Net-(J7-Pin_1)*%
X101600000Y-38100000D02*
X101600000Y-35560000D01*
X101600000Y-35560000D02*
X109220000Y-27940000D01*
%TO.N,Net-(J7-Pin_2)*%
X101600000Y-40640000D02*
X109220000Y-33020000D01*
%TO.N,Net-(J7-Pin_3)*%
X106680000Y-38100000D02*
X101600000Y-43180000D01*
X109220000Y-38100000D02*
X106680000Y-38100000D01*
%TO.N,Net-(J7-Pin_4)*%
X104140000Y-43180000D02*
X109220000Y-43180000D01*
X101600000Y-45720000D02*
X104140000Y-43180000D01*
%TO.N,Net-(J7-Pin_5)*%
X101600000Y-48260000D02*
X109220000Y-48260000D01*
%TO.N,Net-(J7-Pin_6)*%
X106680000Y-50800000D02*
X109220000Y-53340000D01*
X101600000Y-50800000D02*
X106680000Y-50800000D01*
%TO.N,Net-(J7-Pin_7)*%
X101600000Y-53340000D02*
X104140000Y-53340000D01*
X104140000Y-53340000D02*
X109220000Y-58420000D01*
%TO.N,Net-(J7-Pin_8)*%
X101600000Y-55880000D02*
X109220000Y-63500000D01*
%TO.N,Net-(J8-Pin_1)*%
X101600000Y-78740000D02*
X101600000Y-76200000D01*
X101600000Y-76200000D02*
X109220000Y-68580000D01*
%TO.N,Net-(J8-Pin_2)*%
X101600000Y-81280000D02*
X109220000Y-73660000D01*
%TO.N,Net-(J8-Pin_3)*%
X106680000Y-78740000D02*
X101600000Y-83820000D01*
X109220000Y-78740000D02*
X106680000Y-78740000D01*
%TO.N,Net-(J8-Pin_4)*%
X101600000Y-86360000D02*
X104140000Y-83820000D01*
X104140000Y-83820000D02*
X109220000Y-83820000D01*
%TO.N,Net-(J8-Pin_5)*%
X101600000Y-88900000D02*
X109220000Y-88900000D01*
%TO.N,Net-(J8-Pin_6)*%
X106680000Y-91440000D02*
X109220000Y-93980000D01*
X101600000Y-91440000D02*
X106680000Y-91440000D01*
%TO.N,Net-(J8-Pin_7)*%
X101600000Y-93980000D02*
X104140000Y-93980000D01*
X104140000Y-93980000D02*
X109220000Y-99060000D01*
%TO.N,Net-(J8-Pin_8)*%
X101600000Y-96520000D02*
X109220000Y-104140000D01*
%TO.N,R0*%
X129794000Y-128016000D02*
X142494000Y-140716000D01*
X127254000Y-128016000D02*
X129794000Y-128016000D01*
%TO.N,R1*%
X134874000Y-128016000D02*
X134874000Y-130556000D01*
X134874000Y-130556000D02*
X145034000Y-140716000D01*
%TO.N,R2*%
X142494000Y-135636000D02*
X147574000Y-140716000D01*
X142494000Y-128016000D02*
X142494000Y-135636000D01*
%TO.N,R3*%
X150114000Y-128016000D02*
X150114000Y-140716000D01*
%TO.N,R4*%
X157734000Y-128016000D02*
X157734000Y-135636000D01*
X157734000Y-135636000D02*
X152654000Y-140716000D01*
%TO.N,R5*%
X155194000Y-140716000D02*
X165354000Y-130556000D01*
X165354000Y-130556000D02*
X165354000Y-128016000D01*
%TO.N,R6*%
X157734000Y-140716000D02*
X169359000Y-129091000D01*
X172974000Y-128524000D02*
X172974000Y-128016000D01*
X169359000Y-129091000D02*
X172407000Y-129091000D01*
X172407000Y-129091000D02*
X172974000Y-128524000D01*
%TO.N,R7*%
X180594000Y-128778000D02*
X180594000Y-128016000D01*
X160274000Y-140716000D02*
X168656000Y-140716000D01*
X168656000Y-140716000D02*
X180594000Y-128778000D01*
%TO.N,Net-(Q1-B)*%
X125984000Y-128016000D02*
X125984000Y-127791000D01*
X125984000Y-127791000D02*
X133379000Y-120396000D01*
X133379000Y-120396000D02*
X134874000Y-120396000D01*
%TO.N,Net-(Q2-B)*%
X133604000Y-128016000D02*
X133604000Y-126746000D01*
X133604000Y-126746000D02*
X139954000Y-120396000D01*
%TO.N,Net-(Q3-B)*%
X141224000Y-124206000D02*
X145034000Y-120396000D01*
X141224000Y-128016000D02*
X141224000Y-124206000D01*
%TO.N,Net-(Q4-B)*%
X148844000Y-121666000D02*
X150114000Y-120396000D01*
X148844000Y-128016000D02*
X148844000Y-121666000D01*
%TO.N,Net-(Q5-B)*%
X155194000Y-120396000D02*
X156464000Y-121666000D01*
X156464000Y-121666000D02*
X156464000Y-128016000D01*
%TO.N,Net-(Q6-B)*%
X160274000Y-120396000D02*
X164084000Y-124206000D01*
X164084000Y-124206000D02*
X164084000Y-128016000D01*
%TO.N,Net-(Q7-B)*%
X165354000Y-120396000D02*
X171704000Y-126746000D01*
X171704000Y-126746000D02*
X171704000Y-128016000D01*
%TO.N,Net-(Q8-B)*%
X179324000Y-127016000D02*
X179324000Y-128016000D01*
X170434000Y-120396000D02*
X172704000Y-120396000D01*
X172704000Y-120396000D02*
X179324000Y-127016000D01*
%TO.N,Net-(U1-QA)*%
X47128630Y-27940000D02*
X43180000Y-27940000D01*
X54748630Y-35560000D02*
X47128630Y-27940000D01*
X55880000Y-35560000D02*
X54748630Y-35560000D01*
%TO.N,Net-(U1-QB)*%
X43180000Y-33020000D02*
X48260000Y-33020000D01*
%TO.N,Net-(U1-QC)*%
X43180000Y-38100000D02*
X45720000Y-38100000D01*
X45720000Y-38100000D02*
X48260000Y-35560000D01*
%TO.N,Net-(U1-QD)*%
X48260000Y-38100000D02*
X43180000Y-43180000D01*
%TO.N,Net-(U1-QE)*%
X43180000Y-45720000D02*
X43180000Y-48260000D01*
X48260000Y-40640000D02*
X43180000Y-45720000D01*
%TO.N,Net-(U1-QF)*%
X48260000Y-43180000D02*
X44305000Y-47135000D01*
X44305000Y-47135000D02*
X44305000Y-52215000D01*
X44305000Y-52215000D02*
X43180000Y-53340000D01*
%TO.N,Net-(U1-QG)*%
X44755000Y-56845000D02*
X43180000Y-58420000D01*
X44755000Y-49225000D02*
X44755000Y-56845000D01*
X48260000Y-45720000D02*
X44755000Y-49225000D01*
%TO.N,Net-(U1-QH)*%
X48260000Y-48260000D02*
X45205000Y-51315000D01*
X45205000Y-61475000D02*
X43180000Y-63500000D01*
X45205000Y-51315000D02*
X45205000Y-61475000D01*
%TO.N,Net-(U2-QA)*%
X43180000Y-68580000D02*
X44305000Y-69705000D01*
X44305000Y-69705000D02*
X49385000Y-69705000D01*
X49385000Y-69705000D02*
X55880000Y-76200000D01*
%TO.N,Net-(U2-QB)*%
X48260000Y-73660000D02*
X43180000Y-73660000D01*
%TO.N,Net-(U2-QC)*%
X45720000Y-78740000D02*
X48260000Y-76200000D01*
X43180000Y-78740000D02*
X45720000Y-78740000D01*
%TO.N,Net-(U2-QD)*%
X48260000Y-78740000D02*
X43180000Y-83820000D01*
%TO.N,Net-(U2-QE)*%
X43180000Y-86360000D02*
X43180000Y-88900000D01*
X48260000Y-81280000D02*
X43180000Y-86360000D01*
%TO.N,Net-(U2-QF)*%
X48260000Y-83820000D02*
X44305000Y-87775000D01*
X44305000Y-87775000D02*
X44305000Y-92855000D01*
X44305000Y-92855000D02*
X43180000Y-93980000D01*
%TO.N,Net-(U2-QG)*%
X44958000Y-97282000D02*
X43180000Y-99060000D01*
X48260000Y-86360000D02*
X44958000Y-89662000D01*
X44958000Y-89662000D02*
X44958000Y-97282000D01*
%TO.N,Net-(U2-QH)*%
X45408000Y-91752000D02*
X45408000Y-101912000D01*
X45408000Y-101912000D02*
X43180000Y-104140000D01*
X48260000Y-88900000D02*
X45408000Y-91752000D01*
%TO.N,Net-(U3-QA)*%
X44305000Y-110345000D02*
X49385000Y-110345000D01*
X43180000Y-109220000D02*
X44305000Y-110345000D01*
X49385000Y-110345000D02*
X55880000Y-116840000D01*
%TO.N,Net-(U3-QB)*%
X43180000Y-114300000D02*
X48260000Y-114300000D01*
%TO.N,Net-(U3-QC)*%
X45720000Y-119380000D02*
X48260000Y-116840000D01*
X43180000Y-119380000D02*
X45720000Y-119380000D01*
%TO.N,Net-(U3-QD)*%
X48260000Y-119380000D02*
X43180000Y-124460000D01*
%TO.N,Net-(U3-QE)*%
X48260000Y-121920000D02*
X43180000Y-127000000D01*
X43180000Y-127000000D02*
X43180000Y-129540000D01*
%TO.N,Net-(U3-QF)*%
X44305000Y-128415000D02*
X44305000Y-133495000D01*
X48260000Y-124460000D02*
X44305000Y-128415000D01*
X44305000Y-133495000D02*
X43180000Y-134620000D01*
%TO.N,Net-(U3-QG)*%
X44755000Y-138125000D02*
X43180000Y-139700000D01*
X44755000Y-130505000D02*
X44755000Y-138125000D01*
X48260000Y-127000000D02*
X44755000Y-130505000D01*
%TO.N,Net-(U3-QH)*%
X47135000Y-130665000D02*
X47135000Y-140825000D01*
X48260000Y-129540000D02*
X47135000Y-130665000D01*
X47135000Y-140825000D02*
X43180000Y-144780000D01*
%TO.N,Net-(U4-QA)*%
X82405000Y-29065000D02*
X87485000Y-29065000D01*
X87485000Y-29065000D02*
X93980000Y-35560000D01*
X81280000Y-27940000D02*
X82405000Y-29065000D01*
%TO.N,Net-(U4-QB)*%
X81280000Y-33020000D02*
X86360000Y-33020000D01*
%TO.N,Net-(U4-QC)*%
X83820000Y-38100000D02*
X86360000Y-35560000D01*
X81280000Y-38100000D02*
X83820000Y-38100000D01*
%TO.N,Net-(U4-QD)*%
X86360000Y-38100000D02*
X81280000Y-43180000D01*
%TO.N,Net-(U4-QH)*%
X83508000Y-61272000D02*
X81280000Y-63500000D01*
X86360000Y-48260000D02*
X83508000Y-51112000D01*
X83508000Y-51112000D02*
X83508000Y-61272000D01*
%TO.N,Net-(U5-QA)*%
X93980000Y-76200000D02*
X92848630Y-76200000D01*
X85228630Y-68580000D02*
X81280000Y-68580000D01*
X92848630Y-76200000D02*
X85228630Y-68580000D01*
%TO.N,Net-(U5-QB)*%
X81280000Y-73660000D02*
X86360000Y-73660000D01*
%TO.N,Net-(U5-QC)*%
X83820000Y-78740000D02*
X86360000Y-76200000D01*
X81280000Y-78740000D02*
X83820000Y-78740000D01*
%TO.N,Net-(U5-QD)*%
X86360000Y-78740000D02*
X81280000Y-83820000D01*
%TO.N,Net-(U5-QE)*%
X81280000Y-88900000D02*
X82405000Y-87775000D01*
X82405000Y-87775000D02*
X82405000Y-85235000D01*
X82405000Y-85235000D02*
X86360000Y-81280000D01*
%TO.N,Net-(U5-QF)*%
X86360000Y-84456396D02*
X82550000Y-88266396D01*
X82550000Y-88266396D02*
X82550000Y-92710000D01*
X86360000Y-83820000D02*
X86360000Y-84456396D01*
X82550000Y-92710000D02*
X81280000Y-93980000D01*
%TO.N,Net-(U5-QG)*%
X83000000Y-97340000D02*
X83000000Y-89720000D01*
X83000000Y-89720000D02*
X86360000Y-86360000D01*
X81280000Y-99060000D02*
X83000000Y-97340000D01*
%TO.N,Net-(U5-QH)*%
X83450000Y-91810000D02*
X83450000Y-101970000D01*
X86360000Y-88900000D02*
X83450000Y-91810000D01*
X83450000Y-101970000D02*
X81280000Y-104140000D01*
%TO.N,Net-(U6-QA)*%
X93980000Y-116840000D02*
X92848630Y-116840000D01*
X92848630Y-116840000D02*
X85228630Y-109220000D01*
X85228630Y-109220000D02*
X81280000Y-109220000D01*
%TO.N,Net-(U6-QB)*%
X81280000Y-114300000D02*
X86360000Y-114300000D01*
%TO.N,Net-(U6-QC)*%
X81280000Y-119380000D02*
X83820000Y-119380000D01*
X83820000Y-119380000D02*
X86360000Y-116840000D01*
%TO.N,Net-(U6-QD)*%
X81280000Y-124460000D02*
X86360000Y-119380000D01*
%TO.N,Net-(U6-QE)*%
X81280000Y-129540000D02*
X81280000Y-127000000D01*
X81280000Y-127000000D02*
X86360000Y-121920000D01*
%TO.N,Net-(U7-QA)*%
X125585000Y-29065000D02*
X132080000Y-35560000D01*
X119380000Y-27940000D02*
X120505000Y-29065000D01*
X120505000Y-29065000D02*
X125585000Y-29065000D01*
%TO.N,Net-(U7-QB)*%
X119380000Y-33020000D02*
X124460000Y-33020000D01*
%TO.N,Net-(U7-QC)*%
X119380000Y-38100000D02*
X121920000Y-38100000D01*
X121920000Y-38100000D02*
X124460000Y-35560000D01*
%TO.N,Net-(U7-QD)*%
X119380000Y-43180000D02*
X124460000Y-38100000D01*
%TO.N,Net-(U7-QH)*%
X124460000Y-48260000D02*
X121405000Y-51315000D01*
X121405000Y-61475000D02*
X119380000Y-63500000D01*
X121405000Y-51315000D02*
X121405000Y-61475000D01*
%TO.N,Net-(U8-QA)*%
X132080000Y-76200000D02*
X130948630Y-76200000D01*
X130948630Y-76200000D02*
X123328630Y-68580000D01*
X123328630Y-68580000D02*
X119380000Y-68580000D01*
%TO.N,Net-(U8-QB)*%
X119380000Y-73660000D02*
X124460000Y-73660000D01*
%TO.N,Net-(U8-QC)*%
X119380000Y-78740000D02*
X121920000Y-78740000D01*
X121920000Y-78740000D02*
X124460000Y-76200000D01*
%TO.N,Net-(U8-QD)*%
X124460000Y-78740000D02*
X119380000Y-83820000D01*
%TO.N,Net-(U8-QE)*%
X119380000Y-86360000D02*
X124460000Y-81280000D01*
X119380000Y-88900000D02*
X119380000Y-86360000D01*
%TO.N,Net-(U8-QF)*%
X120505000Y-92855000D02*
X119380000Y-93980000D01*
X124460000Y-83820000D02*
X120505000Y-87775000D01*
X120505000Y-87775000D02*
X120505000Y-92855000D01*
%TO.N,Net-(U8-QG)*%
X120955000Y-89865000D02*
X124460000Y-86360000D01*
X119380000Y-99060000D02*
X120955000Y-97485000D01*
X120955000Y-97485000D02*
X120955000Y-89865000D01*
%TO.N,Net-(U8-QH)*%
X121405000Y-102115000D02*
X119380000Y-104140000D01*
X121405000Y-91955000D02*
X121405000Y-102115000D01*
X124460000Y-88900000D02*
X121405000Y-91955000D01*
%TO.N,Net-(U9-QH)*%
X157734000Y-105156000D02*
X161239000Y-108661000D01*
X161239000Y-108661000D02*
X168859000Y-108661000D01*
X168859000Y-108661000D02*
X170434000Y-110236000D01*
%TO.N,Net-(U9-QG)*%
X155194000Y-105156000D02*
X159149000Y-109111000D01*
X164229000Y-109111000D02*
X165354000Y-110236000D01*
X159149000Y-109111000D02*
X164229000Y-109111000D01*
%TO.N,Net-(U9-QA)*%
X134874000Y-110236000D02*
X145034000Y-100076000D01*
X145034000Y-100076000D02*
X145034000Y-97536000D01*
%TO.N,Net-(U9-QB)*%
X139954000Y-110236000D02*
X139954000Y-107696000D01*
X139954000Y-107696000D02*
X142494000Y-105156000D01*
%TO.N,Net-(U9-QC)*%
X145034000Y-105156000D02*
X145034000Y-110236000D01*
%TO.N,Net-(U9-QD)*%
X147574000Y-105156000D02*
X147574000Y-107696000D01*
X147574000Y-107696000D02*
X150114000Y-110236000D01*
%TO.N,Net-(U9-QF)*%
X152654000Y-105156000D02*
X157734000Y-110236000D01*
X157734000Y-110236000D02*
X160274000Y-110236000D01*
%TO.N,Net-(U9-QE)*%
X150114000Y-105156000D02*
X155194000Y-110236000D01*
%TO.N,Net-(U3-QH')*%
X90315000Y-34435000D02*
X84691000Y-34435000D01*
X84691000Y-34435000D02*
X84074000Y-35052000D01*
X93980000Y-38100000D02*
X90315000Y-34435000D01*
%TO.N,Net-(U6-QH')*%
X126746000Y-38100000D02*
X126492000Y-38354000D01*
X132080000Y-38100000D02*
X126746000Y-38100000D01*
%TO.N,VCC*%
X157266000Y-85344000D02*
X163322000Y-85344000D01*
X153964000Y-88646000D02*
X157266000Y-85344000D01*
%TO.N,Net-(D2-A)*%
X183896000Y-44704000D02*
X183896000Y-48265000D01*
%TD*%
M02*
