M48
; DRILL file {KiCad 7.0.2} date Fri May 24 22:48:04 2024
; FORMAT={-:-/ absolute / metric / decimal}
; #@! TF.CreationDate,2024-05-24T22:48:04-05:00
; #@! TF.GenerationSoftware,Kicad,Pcbnew,7.0.2
; #@! TF.FileFunction,Plated,1,2,PTH
FMAT,2
METRIC
; #@! TA.AperFunction,Plated,PTH,ViaDrill
T1C0.400
; #@! TA.AperFunction,Plated,PTH,ComponentDrill
T2C0.750
; #@! TA.AperFunction,Plated,PTH,ComponentDrill
T3C0.800
; #@! TA.AperFunction,Plated,PTH,ComponentDrill
T4C0.900
; #@! TA.AperFunction,Plated,PTH,ComponentDrill
T5C1.000
; #@! TA.AperFunction,Plated,PTH,ComponentDrill
T6C1.100
; #@! TA.AperFunction,Plated,PTH,ComponentDrill
T7C3.200
%
G90
G05
T1
X84.074Y-35.052
X126.492Y-38.354
X129.54Y-83.82
T2
X124.714Y-128.016
X125.984Y-128.016
X127.254Y-128.016
X132.334Y-128.016
X133.604Y-128.016
X134.874Y-128.016
X139.954Y-128.016
X141.224Y-128.016
X142.494Y-128.016
X147.574Y-128.016
X148.844Y-128.016
X150.114Y-128.016
X155.194Y-128.016
X156.464Y-128.016
X157.734Y-128.016
X162.814Y-128.016
X164.084Y-128.016
X165.354Y-128.016
X170.434Y-128.016
X171.704Y-128.016
X172.974Y-128.016
X178.054Y-128.016
X179.324Y-128.016
X180.594Y-128.016
T3
X33.02Y-27.94
X33.02Y-33.02
X33.02Y-38.1
X33.02Y-43.18
X33.02Y-48.26
X33.02Y-53.34
X33.02Y-58.42
X33.02Y-63.5
X33.02Y-68.58
X33.02Y-73.66
X33.02Y-78.74
X33.02Y-83.82
X33.02Y-88.9
X33.02Y-93.98
X33.02Y-99.06
X33.02Y-104.14
X33.02Y-109.22
X33.02Y-114.3
X33.02Y-119.38
X33.02Y-124.46
X33.02Y-129.54
X33.02Y-134.62
X33.02Y-139.7
X33.02Y-144.78
X43.18Y-27.94
X43.18Y-33.02
X43.18Y-38.1
X43.18Y-43.18
X43.18Y-48.26
X43.18Y-53.34
X43.18Y-58.42
X43.18Y-63.5
X43.18Y-68.58
X43.18Y-73.66
X43.18Y-78.74
X43.18Y-83.82
X43.18Y-88.9
X43.18Y-93.98
X43.18Y-99.06
X43.18Y-104.14
X43.18Y-109.22
X43.18Y-114.3
X43.18Y-119.38
X43.18Y-124.46
X43.18Y-129.54
X43.18Y-134.62
X43.18Y-139.7
X43.18Y-144.78
X48.26Y-33.02
X48.26Y-35.56
X48.26Y-38.1
X48.26Y-40.64
X48.26Y-43.18
X48.26Y-45.72
X48.26Y-48.26
X48.26Y-50.8
X48.26Y-73.66
X48.26Y-76.2
X48.26Y-78.74
X48.26Y-81.28
X48.26Y-83.82
X48.26Y-86.36
X48.26Y-88.9
X48.26Y-91.44
X48.26Y-114.3
X48.26Y-116.84
X48.26Y-119.38
X48.26Y-121.92
X48.26Y-124.46
X48.26Y-127.0
X48.26Y-129.54
X48.26Y-132.08
X49.57Y-68.58
X49.57Y-109.22
X49.61Y-27.94
X54.57Y-68.58
X54.57Y-109.22
X54.61Y-27.94
X55.88Y-33.02
X55.88Y-35.56
X55.88Y-38.1
X55.88Y-40.64
X55.88Y-43.18
X55.88Y-45.72
X55.88Y-48.26
X55.88Y-50.8
X55.88Y-73.66
X55.88Y-76.2
X55.88Y-78.74
X55.88Y-81.28
X55.88Y-83.82
X55.88Y-86.36
X55.88Y-88.9
X55.88Y-91.44
X55.88Y-114.3
X55.88Y-116.84
X55.88Y-119.38
X55.88Y-121.92
X55.88Y-124.46
X55.88Y-127.0
X55.88Y-129.54
X55.88Y-132.08
X71.12Y-27.94
X71.12Y-33.02
X71.12Y-38.1
X71.12Y-43.18
X71.12Y-48.26
X71.12Y-53.34
X71.12Y-58.42
X71.12Y-63.5
X71.12Y-68.58
X71.12Y-73.66
X71.12Y-78.74
X71.12Y-83.82
X71.12Y-88.9
X71.12Y-93.98
X71.12Y-99.06
X71.12Y-104.14
X71.12Y-109.22
X71.12Y-114.3
X71.12Y-119.38
X71.12Y-124.46
X71.12Y-129.54
X71.12Y-134.62
X71.12Y-139.7
X71.12Y-144.78
X81.28Y-27.94
X81.28Y-33.02
X81.28Y-38.1
X81.28Y-43.18
X81.28Y-48.26
X81.28Y-53.34
X81.28Y-58.42
X81.28Y-63.5
X81.28Y-68.58
X81.28Y-73.66
X81.28Y-78.74
X81.28Y-83.82
X81.28Y-88.9
X81.28Y-93.98
X81.28Y-99.06
X81.28Y-104.14
X81.28Y-109.22
X81.28Y-114.3
X81.28Y-119.38
X81.28Y-124.46
X81.28Y-129.54
X81.28Y-134.62
X81.28Y-139.7
X81.28Y-144.78
X86.36Y-33.02
X86.36Y-35.56
X86.36Y-38.1
X86.36Y-40.64
X86.36Y-43.18
X86.36Y-45.72
X86.36Y-48.26
X86.36Y-50.8
X86.36Y-73.66
X86.36Y-76.2
X86.36Y-78.74
X86.36Y-81.28
X86.36Y-83.82
X86.36Y-86.36
X86.36Y-88.9
X86.36Y-91.44
X86.36Y-114.3
X86.36Y-116.84
X86.36Y-119.38
X86.36Y-121.92
X86.36Y-124.46
X86.36Y-127.0
X86.36Y-129.54
X86.36Y-132.08
X87.67Y-27.94
X87.67Y-68.58
X87.67Y-109.22
X92.67Y-27.94
X92.67Y-68.58
X92.67Y-109.22
X93.98Y-33.02
X93.98Y-35.56
X93.98Y-38.1
X93.98Y-40.64
X93.98Y-43.18
X93.98Y-45.72
X93.98Y-48.26
X93.98Y-50.8
X93.98Y-73.66
X93.98Y-76.2
X93.98Y-78.74
X93.98Y-81.28
X93.98Y-83.82
X93.98Y-86.36
X93.98Y-88.9
X93.98Y-91.44
X93.98Y-114.3
X93.98Y-116.84
X93.98Y-119.38
X93.98Y-121.92
X93.98Y-124.46
X93.98Y-127.0
X93.98Y-129.54
X93.98Y-132.08
X109.22Y-27.94
X109.22Y-33.02
X109.22Y-38.1
X109.22Y-43.18
X109.22Y-48.26
X109.22Y-53.34
X109.22Y-58.42
X109.22Y-63.5
X109.22Y-68.58
X109.22Y-73.66
X109.22Y-78.74
X109.22Y-83.82
X109.22Y-88.9
X109.22Y-93.98
X109.22Y-99.06
X109.22Y-104.14
X119.38Y-27.94
X119.38Y-33.02
X119.38Y-38.1
X119.38Y-43.18
X119.38Y-48.26
X119.38Y-53.34
X119.38Y-58.42
X119.38Y-63.5
X119.38Y-68.58
X119.38Y-73.66
X119.38Y-78.74
X119.38Y-83.82
X119.38Y-88.9
X119.38Y-93.98
X119.38Y-99.06
X119.38Y-104.14
X124.46Y-33.02
X124.46Y-35.56
X124.46Y-38.1
X124.46Y-40.64
X124.46Y-43.18
X124.46Y-45.72
X124.46Y-48.26
X124.46Y-50.8
X124.46Y-73.66
X124.46Y-76.2
X124.46Y-78.74
X124.46Y-81.28
X124.46Y-83.82
X124.46Y-86.36
X124.46Y-88.9
X124.46Y-91.44
X125.77Y-27.94
X125.77Y-68.58
X130.77Y-27.94
X130.77Y-68.58
X132.08Y-33.02
X132.08Y-35.56
X132.08Y-38.1
X132.08Y-40.64
X132.08Y-43.18
X132.08Y-45.72
X132.08Y-48.26
X132.08Y-50.8
X132.08Y-73.66
X132.08Y-76.2
X132.08Y-78.74
X132.08Y-81.28
X132.08Y-83.82
X132.08Y-86.36
X132.08Y-88.9
X132.08Y-91.44
X134.874Y-110.236
X134.874Y-120.396
X137.414Y-98.846
X137.414Y-103.846
X139.232Y-60.706
X139.954Y-110.236
X139.954Y-120.396
X142.494Y-97.536
X142.494Y-105.156
X144.232Y-60.706
X145.034Y-97.536
X145.034Y-105.156
X145.034Y-110.236
X145.034Y-120.396
X147.574Y-97.536
X147.574Y-105.156
X150.114Y-97.536
X150.114Y-105.156
X150.114Y-110.236
X150.114Y-120.396
X152.654Y-97.536
X152.654Y-105.156
X153.964Y-88.646
X155.194Y-97.536
X155.194Y-105.156
X155.194Y-110.236
X155.194Y-120.396
X157.734Y-97.536
X157.734Y-105.156
X158.964Y-88.646
X160.274Y-97.536
X160.274Y-105.156
X160.274Y-110.236
X160.274Y-120.396
X165.354Y-110.236
X165.354Y-120.396
X170.434Y-110.236
X170.434Y-120.396
X173.014Y-88.646
X178.014Y-88.646
X183.896Y-34.544
X183.896Y-44.704
T4
X183.896Y-48.265
X183.896Y-50.805
T5
X25.4Y-38.1
X25.4Y-40.64
X25.4Y-43.18
X25.4Y-45.72
X25.4Y-48.26
X25.4Y-50.8
X25.4Y-53.34
X25.4Y-55.88
X25.4Y-78.74
X25.4Y-81.28
X25.4Y-83.82
X25.4Y-86.36
X25.4Y-88.9
X25.4Y-91.44
X25.4Y-93.98
X25.4Y-96.52
X25.4Y-119.38
X25.4Y-121.92
X25.4Y-124.46
X25.4Y-127.0
X25.4Y-129.54
X25.4Y-132.08
X25.4Y-134.62
X25.4Y-137.16
X63.5Y-38.1
X63.5Y-40.64
X63.5Y-43.18
X63.5Y-45.72
X63.5Y-48.26
X63.5Y-50.8
X63.5Y-53.34
X63.5Y-55.88
X63.5Y-78.74
X63.5Y-81.28
X63.5Y-83.82
X63.5Y-86.36
X63.5Y-88.9
X63.5Y-91.44
X63.5Y-93.98
X63.5Y-96.52
X63.5Y-119.38
X63.5Y-121.92
X63.5Y-124.46
X63.5Y-127.0
X63.5Y-129.54
X63.5Y-132.08
X63.5Y-134.62
X63.5Y-137.16
X101.6Y-38.1
X101.6Y-40.64
X101.6Y-43.18
X101.6Y-45.72
X101.6Y-48.26
X101.6Y-50.8
X101.6Y-53.34
X101.6Y-55.88
X101.6Y-78.74
X101.6Y-81.28
X101.6Y-83.82
X101.6Y-86.36
X101.6Y-88.9
X101.6Y-91.44
X101.6Y-93.98
X101.6Y-96.52
X142.494Y-140.716
X145.034Y-140.716
X147.574Y-27.686
X147.574Y-30.226
X147.574Y-32.766
X147.574Y-35.306
X147.574Y-37.846
X147.574Y-40.386
X147.574Y-42.926
X147.574Y-45.466
X147.574Y-140.716
X150.114Y-140.716
X152.654Y-140.716
X155.194Y-140.716
X156.718Y-25.908
X156.718Y-28.448
X156.718Y-30.988
X156.718Y-33.528
X156.718Y-36.068
X156.718Y-38.608
X156.718Y-41.148
X156.718Y-43.688
X156.718Y-46.228
X156.718Y-48.768
X156.718Y-51.308
X156.718Y-53.848
X156.718Y-56.388
X156.718Y-58.928
X156.718Y-61.468
X156.718Y-66.548
X156.718Y-69.088
X156.718Y-71.628
X156.718Y-74.168
X156.76Y-64.008
X157.734Y-140.716
X160.274Y-140.716
X174.498Y-25.908
X174.498Y-28.448
X174.498Y-30.988
X174.498Y-33.528
X174.498Y-36.068
X174.498Y-38.608
X174.498Y-41.148
X174.498Y-43.688
X174.498Y-46.228
X174.498Y-48.768
X174.498Y-51.308
X174.498Y-53.848
X174.498Y-56.388
X174.498Y-58.928
X174.498Y-61.468
X174.498Y-64.008
X174.498Y-66.548
X174.498Y-69.088
X174.498Y-71.628
X174.498Y-74.168
T6
X163.322Y-85.344
X165.862Y-85.344
X168.402Y-85.344
T7
X23.368Y-28.194
X23.368Y-145.796
X184.404Y-28.194
X184.404Y-145.796
T0
M30
