%TF.GenerationSoftware,KiCad,Pcbnew,7.0.2*%
%TF.CreationDate,2023-07-19T12:21:27-05:00*%
%TF.ProjectId,cube,63756265-2e6b-4696-9361-645f70636258,rev?*%
%TF.SameCoordinates,Original*%
%TF.FileFunction,Soldermask,Bot*%
%TF.FilePolarity,Negative*%
%FSLAX46Y46*%
G04 Gerber Fmt 4.6, Leading zero omitted, Abs format (unit mm)*
G04 Created by KiCad (PCBNEW 7.0.2) date 2023-07-19 12:21:27*
%MOMM*%
%LPD*%
G01*
G04 APERTURE LIST*
%ADD10C,1.600000*%
%ADD11O,1.600000X1.600000*%
%ADD12R,1.600000X1.600000*%
%ADD13R,1.050000X1.500000*%
%ADD14O,1.050000X1.500000*%
%ADD15R,1.700000X1.700000*%
%ADD16O,1.700000X1.700000*%
%ADD17R,1.800000X1.800000*%
%ADD18C,1.800000*%
G04 APERTURE END LIST*
D10*
%TO.C,R21*%
X43180000Y-129540000D03*
D11*
X33020000Y-129540000D03*
%TD*%
D12*
%TO.C,U9*%
X147320000Y-91440000D03*
D11*
X149860000Y-91440000D03*
X152400000Y-91440000D03*
X154940000Y-91440000D03*
X157480000Y-91440000D03*
X160020000Y-91440000D03*
X162560000Y-91440000D03*
X165100000Y-91440000D03*
X165100000Y-83820000D03*
X162560000Y-83820000D03*
X160020000Y-83820000D03*
X157480000Y-83820000D03*
X154940000Y-83820000D03*
X152400000Y-83820000D03*
X149860000Y-83820000D03*
X147320000Y-83820000D03*
%TD*%
D12*
%TO.C,U8*%
X124460000Y-73660000D03*
D11*
X124460000Y-76200000D03*
X124460000Y-78740000D03*
X124460000Y-81280000D03*
X124460000Y-83820000D03*
X124460000Y-86360000D03*
X124460000Y-88900000D03*
X124460000Y-91440000D03*
X132080000Y-91440000D03*
X132080000Y-88900000D03*
X132080000Y-86360000D03*
X132080000Y-83820000D03*
X132080000Y-81280000D03*
X132080000Y-78740000D03*
X132080000Y-76200000D03*
X132080000Y-73660000D03*
%TD*%
D12*
%TO.C,U7*%
X124460000Y-33020000D03*
D11*
X124460000Y-35560000D03*
X124460000Y-38100000D03*
X124460000Y-40640000D03*
X124460000Y-43180000D03*
X124460000Y-45720000D03*
X124460000Y-48260000D03*
X124460000Y-50800000D03*
X132080000Y-50800000D03*
X132080000Y-48260000D03*
X132080000Y-45720000D03*
X132080000Y-43180000D03*
X132080000Y-40640000D03*
X132080000Y-38100000D03*
X132080000Y-35560000D03*
X132080000Y-33020000D03*
%TD*%
D12*
%TO.C,U6*%
X86360000Y-114300000D03*
D11*
X86360000Y-116840000D03*
X86360000Y-119380000D03*
X86360000Y-121920000D03*
X86360000Y-124460000D03*
X86360000Y-127000000D03*
X86360000Y-129540000D03*
X86360000Y-132080000D03*
X93980000Y-132080000D03*
X93980000Y-129540000D03*
X93980000Y-127000000D03*
X93980000Y-124460000D03*
X93980000Y-121920000D03*
X93980000Y-119380000D03*
X93980000Y-116840000D03*
X93980000Y-114300000D03*
%TD*%
D12*
%TO.C,U5*%
X86360000Y-73660000D03*
D11*
X86360000Y-76200000D03*
X86360000Y-78740000D03*
X86360000Y-81280000D03*
X86360000Y-83820000D03*
X86360000Y-86360000D03*
X86360000Y-88900000D03*
X86360000Y-91440000D03*
X93980000Y-91440000D03*
X93980000Y-88900000D03*
X93980000Y-86360000D03*
X93980000Y-83820000D03*
X93980000Y-81280000D03*
X93980000Y-78740000D03*
X93980000Y-76200000D03*
X93980000Y-73660000D03*
%TD*%
D12*
%TO.C,U4*%
X86360000Y-33020000D03*
D11*
X86360000Y-35560000D03*
X86360000Y-38100000D03*
X86360000Y-40640000D03*
X86360000Y-43180000D03*
X86360000Y-45720000D03*
X86360000Y-48260000D03*
X86360000Y-50800000D03*
X93980000Y-50800000D03*
X93980000Y-48260000D03*
X93980000Y-45720000D03*
X93980000Y-43180000D03*
X93980000Y-40640000D03*
X93980000Y-38100000D03*
X93980000Y-35560000D03*
X93980000Y-33020000D03*
%TD*%
D12*
%TO.C,U3*%
X48260000Y-114300000D03*
D11*
X48260000Y-116840000D03*
X48260000Y-119380000D03*
X48260000Y-121920000D03*
X48260000Y-124460000D03*
X48260000Y-127000000D03*
X48260000Y-129540000D03*
X48260000Y-132080000D03*
X55880000Y-132080000D03*
X55880000Y-129540000D03*
X55880000Y-127000000D03*
X55880000Y-124460000D03*
X55880000Y-121920000D03*
X55880000Y-119380000D03*
X55880000Y-116840000D03*
X55880000Y-114300000D03*
%TD*%
D12*
%TO.C,U2*%
X48260000Y-73660000D03*
D11*
X48260000Y-76200000D03*
X48260000Y-78740000D03*
X48260000Y-81280000D03*
X48260000Y-83820000D03*
X48260000Y-86360000D03*
X48260000Y-88900000D03*
X48260000Y-91440000D03*
X55880000Y-91440000D03*
X55880000Y-88900000D03*
X55880000Y-86360000D03*
X55880000Y-83820000D03*
X55880000Y-81280000D03*
X55880000Y-78740000D03*
X55880000Y-76200000D03*
X55880000Y-73660000D03*
%TD*%
D12*
%TO.C,U1*%
X48260000Y-33020000D03*
D11*
X48260000Y-35560000D03*
X48260000Y-38100000D03*
X48260000Y-40640000D03*
X48260000Y-43180000D03*
X48260000Y-45720000D03*
X48260000Y-48260000D03*
X48260000Y-50800000D03*
X55880000Y-50800000D03*
X55880000Y-48260000D03*
X55880000Y-45720000D03*
X55880000Y-43180000D03*
X55880000Y-40640000D03*
X55880000Y-38100000D03*
X55880000Y-35560000D03*
X55880000Y-33020000D03*
%TD*%
D10*
%TO.C,R73*%
X160020000Y-96520000D03*
D11*
X160020000Y-106680000D03*
%TD*%
%TO.C,R72*%
X165100000Y-106680000D03*
D10*
X165100000Y-96520000D03*
%TD*%
%TO.C,R71*%
X154940000Y-96520000D03*
D11*
X154940000Y-106680000D03*
%TD*%
D10*
%TO.C,R70*%
X149860000Y-96520000D03*
D11*
X149860000Y-106680000D03*
%TD*%
D10*
%TO.C,R69*%
X144780000Y-96520000D03*
D11*
X144780000Y-106680000D03*
%TD*%
D10*
%TO.C,R68*%
X139700000Y-96520000D03*
D11*
X139700000Y-106680000D03*
%TD*%
D10*
%TO.C,R67*%
X170180000Y-96520000D03*
D11*
X170180000Y-106680000D03*
%TD*%
D10*
%TO.C,R66*%
X175260000Y-96520000D03*
D11*
X175260000Y-106680000D03*
%TD*%
D10*
%TO.C,R65*%
X139700000Y-33020000D03*
D11*
X149860000Y-33020000D03*
%TD*%
%TO.C,R64*%
X109220000Y-104140000D03*
D10*
X119380000Y-104140000D03*
%TD*%
D11*
%TO.C,R63*%
X109220000Y-99060000D03*
D10*
X119380000Y-99060000D03*
%TD*%
D11*
%TO.C,R62*%
X109220000Y-93980000D03*
D10*
X119380000Y-93980000D03*
%TD*%
D11*
%TO.C,R61*%
X109220000Y-88900000D03*
D10*
X119380000Y-88900000D03*
%TD*%
D11*
%TO.C,R60*%
X109220000Y-83820000D03*
D10*
X119380000Y-83820000D03*
%TD*%
D11*
%TO.C,R59*%
X109220000Y-78740000D03*
D10*
X119380000Y-78740000D03*
%TD*%
D11*
%TO.C,R58*%
X109220000Y-73660000D03*
D10*
X119380000Y-73660000D03*
%TD*%
D11*
%TO.C,R57*%
X109220000Y-68580000D03*
D10*
X119380000Y-68580000D03*
%TD*%
%TO.C,R56*%
X119380000Y-63500000D03*
D11*
X109220000Y-63500000D03*
%TD*%
D10*
%TO.C,R55*%
X119380000Y-58420000D03*
D11*
X109220000Y-58420000D03*
%TD*%
D10*
%TO.C,R54*%
X119380000Y-53340000D03*
D11*
X109220000Y-53340000D03*
%TD*%
D10*
%TO.C,R53*%
X119380000Y-48260000D03*
D11*
X109220000Y-48260000D03*
%TD*%
D10*
%TO.C,R52*%
X119380000Y-43180000D03*
D11*
X109220000Y-43180000D03*
%TD*%
D10*
%TO.C,R51*%
X119380000Y-38100000D03*
D11*
X109220000Y-38100000D03*
%TD*%
D10*
%TO.C,R50*%
X119380000Y-33020000D03*
D11*
X109220000Y-33020000D03*
%TD*%
D10*
%TO.C,R49*%
X119380000Y-27940000D03*
D11*
X109220000Y-27940000D03*
%TD*%
%TO.C,R48*%
X71120000Y-144780000D03*
D10*
X81280000Y-144780000D03*
%TD*%
%TO.C,R47*%
X81280000Y-139700000D03*
D11*
X71120000Y-139700000D03*
%TD*%
D10*
%TO.C,R46*%
X81280000Y-134620000D03*
D11*
X71120000Y-134620000D03*
%TD*%
D10*
%TO.C,R45*%
X81280000Y-129540000D03*
D11*
X71120000Y-129540000D03*
%TD*%
D10*
%TO.C,R44*%
X81280000Y-124460000D03*
D11*
X71120000Y-124460000D03*
%TD*%
D10*
%TO.C,R43*%
X81280000Y-119380000D03*
D11*
X71120000Y-119380000D03*
%TD*%
D10*
%TO.C,R42*%
X81280000Y-114300000D03*
D11*
X71120000Y-114300000D03*
%TD*%
D10*
%TO.C,R41*%
X81280000Y-109220000D03*
D11*
X71120000Y-109220000D03*
%TD*%
D10*
%TO.C,R40*%
X81280000Y-104140000D03*
D11*
X71120000Y-104140000D03*
%TD*%
D10*
%TO.C,R39*%
X81280000Y-99060000D03*
D11*
X71120000Y-99060000D03*
%TD*%
D10*
%TO.C,R38*%
X81280000Y-93980000D03*
D11*
X71120000Y-93980000D03*
%TD*%
D10*
%TO.C,R37*%
X81280000Y-88900000D03*
D11*
X71120000Y-88900000D03*
%TD*%
D10*
%TO.C,R36*%
X81280000Y-83820000D03*
D11*
X71120000Y-83820000D03*
%TD*%
D10*
%TO.C,R35*%
X81280000Y-78740000D03*
D11*
X71120000Y-78740000D03*
%TD*%
D10*
%TO.C,R34*%
X81280000Y-73660000D03*
D11*
X71120000Y-73660000D03*
%TD*%
D10*
%TO.C,R33*%
X81280000Y-68580000D03*
D11*
X71120000Y-68580000D03*
%TD*%
D10*
%TO.C,R32*%
X81280000Y-63500000D03*
D11*
X71120000Y-63500000D03*
%TD*%
D10*
%TO.C,R31*%
X81280000Y-58420000D03*
D11*
X71120000Y-58420000D03*
%TD*%
D10*
%TO.C,R30*%
X81280000Y-53340000D03*
D11*
X71120000Y-53340000D03*
%TD*%
D10*
%TO.C,R29*%
X81280000Y-48260000D03*
D11*
X71120000Y-48260000D03*
%TD*%
D10*
%TO.C,R28*%
X81280000Y-43180000D03*
D11*
X71120000Y-43180000D03*
%TD*%
D10*
%TO.C,R27*%
X81280000Y-38100000D03*
D11*
X71120000Y-38100000D03*
%TD*%
D10*
%TO.C,R26*%
X81280000Y-33020000D03*
D11*
X71120000Y-33020000D03*
%TD*%
D10*
%TO.C,R25*%
X81280000Y-27940000D03*
D11*
X71120000Y-27940000D03*
%TD*%
D10*
%TO.C,R24*%
X43180000Y-144780000D03*
D11*
X33020000Y-144780000D03*
%TD*%
D10*
%TO.C,R23*%
X43180000Y-139700000D03*
D11*
X33020000Y-139700000D03*
%TD*%
D10*
%TO.C,R22*%
X43180000Y-134620000D03*
D11*
X33020000Y-134620000D03*
%TD*%
D10*
%TO.C,R20*%
X43180000Y-124460000D03*
D11*
X33020000Y-124460000D03*
%TD*%
D10*
%TO.C,R19*%
X43180000Y-119380000D03*
D11*
X33020000Y-119380000D03*
%TD*%
D10*
%TO.C,R18*%
X43180000Y-114300000D03*
D11*
X33020000Y-114300000D03*
%TD*%
D10*
%TO.C,R17*%
X43180000Y-109220000D03*
D11*
X33020000Y-109220000D03*
%TD*%
D10*
%TO.C,R16*%
X43180000Y-104140000D03*
D11*
X33020000Y-104140000D03*
%TD*%
D10*
%TO.C,R15*%
X43180000Y-99060000D03*
D11*
X33020000Y-99060000D03*
%TD*%
D10*
%TO.C,R14*%
X43180000Y-93980000D03*
D11*
X33020000Y-93980000D03*
%TD*%
D10*
%TO.C,R13*%
X43180000Y-88900000D03*
D11*
X33020000Y-88900000D03*
%TD*%
D10*
%TO.C,R12*%
X43180000Y-83820000D03*
D11*
X33020000Y-83820000D03*
%TD*%
D10*
%TO.C,R11*%
X43180000Y-78740000D03*
D11*
X33020000Y-78740000D03*
%TD*%
D10*
%TO.C,R10*%
X43180000Y-73660000D03*
D11*
X33020000Y-73660000D03*
%TD*%
D10*
%TO.C,R9*%
X43180000Y-68580000D03*
D11*
X33020000Y-68580000D03*
%TD*%
D10*
%TO.C,R8*%
X43180000Y-63500000D03*
D11*
X33020000Y-63500000D03*
%TD*%
D10*
%TO.C,R7*%
X43180000Y-58420000D03*
D11*
X33020000Y-58420000D03*
%TD*%
D10*
%TO.C,R6*%
X43180000Y-53340000D03*
D11*
X33020000Y-53340000D03*
%TD*%
D10*
%TO.C,R5*%
X43180000Y-48260000D03*
D11*
X33020000Y-48260000D03*
%TD*%
D10*
%TO.C,R4*%
X43180000Y-43180000D03*
D11*
X33020000Y-43180000D03*
%TD*%
D10*
%TO.C,R3*%
X43180000Y-38100000D03*
D11*
X33020000Y-38100000D03*
%TD*%
D10*
%TO.C,R2*%
X43180000Y-33020000D03*
D11*
X33020000Y-33020000D03*
%TD*%
D10*
%TO.C,R1*%
X43180000Y-27940000D03*
D11*
X33020000Y-27940000D03*
%TD*%
D13*
%TO.C,Q8*%
X182880000Y-114300000D03*
D14*
X184150000Y-114300000D03*
X185420000Y-114300000D03*
%TD*%
D13*
%TO.C,Q7*%
X175260000Y-114300000D03*
D14*
X176530000Y-114300000D03*
X177800000Y-114300000D03*
%TD*%
D13*
%TO.C,Q6*%
X167640000Y-114300000D03*
D14*
X168910000Y-114300000D03*
X170180000Y-114300000D03*
%TD*%
D13*
%TO.C,Q5*%
X160020000Y-114300000D03*
D14*
X161290000Y-114300000D03*
X162560000Y-114300000D03*
%TD*%
D13*
%TO.C,Q4*%
X152400000Y-114300000D03*
D14*
X153670000Y-114300000D03*
X154940000Y-114300000D03*
%TD*%
D13*
%TO.C,Q3*%
X144780000Y-114300000D03*
D14*
X146050000Y-114300000D03*
X147320000Y-114300000D03*
%TD*%
D13*
%TO.C,Q2*%
X137160000Y-114300000D03*
D14*
X138430000Y-114300000D03*
X139700000Y-114300000D03*
%TD*%
D13*
%TO.C,Q1*%
X129540000Y-114300000D03*
D14*
X130810000Y-114300000D03*
X132080000Y-114300000D03*
%TD*%
D15*
%TO.C,J10*%
X147320000Y-127000000D03*
D16*
X149860000Y-127000000D03*
X152400000Y-127000000D03*
X154940000Y-127000000D03*
X157480000Y-127000000D03*
X160020000Y-127000000D03*
X162560000Y-127000000D03*
X165100000Y-127000000D03*
%TD*%
D15*
%TO.C,J9*%
X147320000Y-53340000D03*
D16*
X147320000Y-55880000D03*
X147320000Y-58420000D03*
X147320000Y-60960000D03*
X147320000Y-63500000D03*
X147320000Y-66040000D03*
X147320000Y-68580000D03*
X147320000Y-71120000D03*
%TD*%
D15*
%TO.C,J8*%
X101600000Y-78740000D03*
D16*
X101600000Y-81280000D03*
X101600000Y-83820000D03*
X101600000Y-86360000D03*
X101600000Y-88900000D03*
X101600000Y-91440000D03*
X101600000Y-93980000D03*
X101600000Y-96520000D03*
%TD*%
D15*
%TO.C,J7*%
X101600000Y-38100000D03*
D16*
X101600000Y-40640000D03*
X101600000Y-43180000D03*
X101600000Y-45720000D03*
X101600000Y-48260000D03*
X101600000Y-50800000D03*
X101600000Y-53340000D03*
X101600000Y-55880000D03*
%TD*%
D15*
%TO.C,J6*%
X63500000Y-119380000D03*
D16*
X63500000Y-121920000D03*
X63500000Y-124460000D03*
X63500000Y-127000000D03*
X63500000Y-129540000D03*
X63500000Y-132080000D03*
X63500000Y-134620000D03*
X63500000Y-137160000D03*
%TD*%
D15*
%TO.C,J5*%
X63500000Y-78740000D03*
D16*
X63500000Y-81280000D03*
X63500000Y-83820000D03*
X63500000Y-86360000D03*
X63500000Y-88900000D03*
X63500000Y-91440000D03*
X63500000Y-93980000D03*
X63500000Y-96520000D03*
%TD*%
D15*
%TO.C,J4*%
X63500000Y-38100000D03*
D16*
X63500000Y-40640000D03*
X63500000Y-43180000D03*
X63500000Y-45720000D03*
X63500000Y-48260000D03*
X63500000Y-50800000D03*
X63500000Y-53340000D03*
X63500000Y-55880000D03*
%TD*%
D15*
%TO.C,J3*%
X25400000Y-119380000D03*
D16*
X25400000Y-121920000D03*
X25400000Y-124460000D03*
X25400000Y-127000000D03*
X25400000Y-129540000D03*
X25400000Y-132080000D03*
X25400000Y-134620000D03*
X25400000Y-137160000D03*
%TD*%
%TO.C,J2*%
X25400000Y-96520000D03*
X25400000Y-93980000D03*
X25400000Y-91440000D03*
X25400000Y-88900000D03*
X25400000Y-86360000D03*
X25400000Y-83820000D03*
X25400000Y-81280000D03*
D15*
X25400000Y-78740000D03*
%TD*%
%TO.C,J1*%
X25400000Y-38100000D03*
D16*
X25400000Y-40640000D03*
X25400000Y-43180000D03*
X25400000Y-45720000D03*
X25400000Y-48260000D03*
X25400000Y-50800000D03*
X25400000Y-53340000D03*
X25400000Y-55880000D03*
%TD*%
D17*
%TO.C,D1*%
X144780000Y-43180000D03*
D18*
X147320000Y-43180000D03*
%TD*%
D10*
%TO.C,C1*%
X132160000Y-60960000D03*
X137160000Y-60960000D03*
%TD*%
D12*
%TO.C,A1*%
X172720000Y-68580000D03*
D11*
X172720000Y-66040000D03*
X172720000Y-63500000D03*
X172720000Y-60960000D03*
X172720000Y-58420000D03*
X172720000Y-55880000D03*
X172720000Y-53340000D03*
X172720000Y-50800000D03*
X172720000Y-48260000D03*
X172720000Y-45720000D03*
X172720000Y-43180000D03*
X172720000Y-40640000D03*
X172720000Y-38100000D03*
X172720000Y-35560000D03*
X172720000Y-33020000D03*
X157480000Y-33020000D03*
X157480000Y-35560000D03*
X157480000Y-38100000D03*
X157480000Y-40640000D03*
X157480000Y-43180000D03*
X157480000Y-45720000D03*
X157480000Y-48260000D03*
X157480000Y-50800000D03*
X157480000Y-53340000D03*
X157480000Y-55880000D03*
X157480000Y-58420000D03*
X157480000Y-60960000D03*
X157480000Y-63500000D03*
X157480000Y-66040000D03*
X157480000Y-68580000D03*
%TD*%
M02*
