M48
; DRILL file {KiCad 7.0.2} date Wed Jul 19 12:21:48 2023
; FORMAT={-:-/ absolute / metric / decimal}
; #@! TF.CreationDate,2023-07-19T12:21:48-05:00
; #@! TF.GenerationSoftware,Kicad,Pcbnew,7.0.2
; #@! TF.FileFunction,Plated,1,2,PTH
FMAT,2
METRIC
; #@! TA.AperFunction,Plated,PTH,ComponentDrill
T1C0.750
; #@! TA.AperFunction,Plated,PTH,ComponentDrill
T2C0.800
; #@! TA.AperFunction,Plated,PTH,ComponentDrill
T3C0.900
; #@! TA.AperFunction,Plated,PTH,ComponentDrill
T4C1.000
%
G90
G05
T1
X129.54Y-114.3
X130.81Y-114.3
X132.08Y-114.3
X137.16Y-114.3
X138.43Y-114.3
X139.7Y-114.3
X144.78Y-114.3
X146.05Y-114.3
X147.32Y-114.3
X152.4Y-114.3
X153.67Y-114.3
X154.94Y-114.3
X160.02Y-114.3
X161.29Y-114.3
X162.56Y-114.3
X167.64Y-114.3
X168.91Y-114.3
X170.18Y-114.3
X175.26Y-114.3
X176.53Y-114.3
X177.8Y-114.3
X182.88Y-114.3
X184.15Y-114.3
X185.42Y-114.3
T2
X33.02Y-27.94
X33.02Y-33.02
X33.02Y-38.1
X33.02Y-43.18
X33.02Y-48.26
X33.02Y-53.34
X33.02Y-58.42
X33.02Y-63.5
X33.02Y-68.58
X33.02Y-73.66
X33.02Y-78.74
X33.02Y-83.82
X33.02Y-88.9
X33.02Y-93.98
X33.02Y-99.06
X33.02Y-104.14
X33.02Y-109.22
X33.02Y-114.3
X33.02Y-119.38
X33.02Y-124.46
X33.02Y-129.54
X33.02Y-134.62
X33.02Y-139.7
X33.02Y-144.78
X43.18Y-27.94
X43.18Y-33.02
X43.18Y-38.1
X43.18Y-43.18
X43.18Y-48.26
X43.18Y-53.34
X43.18Y-58.42
X43.18Y-63.5
X43.18Y-68.58
X43.18Y-73.66
X43.18Y-78.74
X43.18Y-83.82
X43.18Y-88.9
X43.18Y-93.98
X43.18Y-99.06
X43.18Y-104.14
X43.18Y-109.22
X43.18Y-114.3
X43.18Y-119.38
X43.18Y-124.46
X43.18Y-129.54
X43.18Y-134.62
X43.18Y-139.7
X43.18Y-144.78
X48.26Y-33.02
X48.26Y-35.56
X48.26Y-38.1
X48.26Y-40.64
X48.26Y-43.18
X48.26Y-45.72
X48.26Y-48.26
X48.26Y-50.8
X48.26Y-73.66
X48.26Y-76.2
X48.26Y-78.74
X48.26Y-81.28
X48.26Y-83.82
X48.26Y-86.36
X48.26Y-88.9
X48.26Y-91.44
X48.26Y-114.3
X48.26Y-116.84
X48.26Y-119.38
X48.26Y-121.92
X48.26Y-124.46
X48.26Y-127.0
X48.26Y-129.54
X48.26Y-132.08
X55.88Y-33.02
X55.88Y-35.56
X55.88Y-38.1
X55.88Y-40.64
X55.88Y-43.18
X55.88Y-45.72
X55.88Y-48.26
X55.88Y-50.8
X55.88Y-73.66
X55.88Y-76.2
X55.88Y-78.74
X55.88Y-81.28
X55.88Y-83.82
X55.88Y-86.36
X55.88Y-88.9
X55.88Y-91.44
X55.88Y-114.3
X55.88Y-116.84
X55.88Y-119.38
X55.88Y-121.92
X55.88Y-124.46
X55.88Y-127.0
X55.88Y-129.54
X55.88Y-132.08
X71.12Y-27.94
X71.12Y-33.02
X71.12Y-38.1
X71.12Y-43.18
X71.12Y-48.26
X71.12Y-53.34
X71.12Y-58.42
X71.12Y-63.5
X71.12Y-68.58
X71.12Y-73.66
X71.12Y-78.74
X71.12Y-83.82
X71.12Y-88.9
X71.12Y-93.98
X71.12Y-99.06
X71.12Y-104.14
X71.12Y-109.22
X71.12Y-114.3
X71.12Y-119.38
X71.12Y-124.46
X71.12Y-129.54
X71.12Y-134.62
X71.12Y-139.7
X71.12Y-144.78
X81.28Y-27.94
X81.28Y-33.02
X81.28Y-38.1
X81.28Y-43.18
X81.28Y-48.26
X81.28Y-53.34
X81.28Y-58.42
X81.28Y-63.5
X81.28Y-68.58
X81.28Y-73.66
X81.28Y-78.74
X81.28Y-83.82
X81.28Y-88.9
X81.28Y-93.98
X81.28Y-99.06
X81.28Y-104.14
X81.28Y-109.22
X81.28Y-114.3
X81.28Y-119.38
X81.28Y-124.46
X81.28Y-129.54
X81.28Y-134.62
X81.28Y-139.7
X81.28Y-144.78
X86.36Y-33.02
X86.36Y-35.56
X86.36Y-38.1
X86.36Y-40.64
X86.36Y-43.18
X86.36Y-45.72
X86.36Y-48.26
X86.36Y-50.8
X86.36Y-73.66
X86.36Y-76.2
X86.36Y-78.74
X86.36Y-81.28
X86.36Y-83.82
X86.36Y-86.36
X86.36Y-88.9
X86.36Y-91.44
X86.36Y-114.3
X86.36Y-116.84
X86.36Y-119.38
X86.36Y-121.92
X86.36Y-124.46
X86.36Y-127.0
X86.36Y-129.54
X86.36Y-132.08
X93.98Y-33.02
X93.98Y-35.56
X93.98Y-38.1
X93.98Y-40.64
X93.98Y-43.18
X93.98Y-45.72
X93.98Y-48.26
X93.98Y-50.8
X93.98Y-73.66
X93.98Y-76.2
X93.98Y-78.74
X93.98Y-81.28
X93.98Y-83.82
X93.98Y-86.36
X93.98Y-88.9
X93.98Y-91.44
X93.98Y-114.3
X93.98Y-116.84
X93.98Y-119.38
X93.98Y-121.92
X93.98Y-124.46
X93.98Y-127.0
X93.98Y-129.54
X93.98Y-132.08
X109.22Y-27.94
X109.22Y-33.02
X109.22Y-38.1
X109.22Y-43.18
X109.22Y-48.26
X109.22Y-53.34
X109.22Y-58.42
X109.22Y-63.5
X109.22Y-68.58
X109.22Y-73.66
X109.22Y-78.74
X109.22Y-83.82
X109.22Y-88.9
X109.22Y-93.98
X109.22Y-99.06
X109.22Y-104.14
X119.38Y-27.94
X119.38Y-33.02
X119.38Y-38.1
X119.38Y-43.18
X119.38Y-48.26
X119.38Y-53.34
X119.38Y-58.42
X119.38Y-63.5
X119.38Y-68.58
X119.38Y-73.66
X119.38Y-78.74
X119.38Y-83.82
X119.38Y-88.9
X119.38Y-93.98
X119.38Y-99.06
X119.38Y-104.14
X124.46Y-33.02
X124.46Y-35.56
X124.46Y-38.1
X124.46Y-40.64
X124.46Y-43.18
X124.46Y-45.72
X124.46Y-48.26
X124.46Y-50.8
X124.46Y-73.66
X124.46Y-76.2
X124.46Y-78.74
X124.46Y-81.28
X124.46Y-83.82
X124.46Y-86.36
X124.46Y-88.9
X124.46Y-91.44
X132.08Y-33.02
X132.08Y-35.56
X132.08Y-38.1
X132.08Y-40.64
X132.08Y-43.18
X132.08Y-45.72
X132.08Y-48.26
X132.08Y-50.8
X132.08Y-73.66
X132.08Y-76.2
X132.08Y-78.74
X132.08Y-81.28
X132.08Y-83.82
X132.08Y-86.36
X132.08Y-88.9
X132.08Y-91.44
X132.16Y-60.96
X137.16Y-60.96
X139.7Y-33.02
X139.7Y-96.52
X139.7Y-106.68
X144.78Y-96.52
X144.78Y-106.68
X147.32Y-83.82
X147.32Y-91.44
X149.86Y-33.02
X149.86Y-83.82
X149.86Y-91.44
X149.86Y-96.52
X149.86Y-106.68
X152.4Y-83.82
X152.4Y-91.44
X154.94Y-83.82
X154.94Y-91.44
X154.94Y-96.52
X154.94Y-106.68
X157.48Y-83.82
X157.48Y-91.44
X160.02Y-83.82
X160.02Y-91.44
X160.02Y-96.52
X160.02Y-106.68
X162.56Y-83.82
X162.56Y-91.44
X165.1Y-83.82
X165.1Y-91.44
X165.1Y-96.52
X165.1Y-106.68
X170.18Y-96.52
X170.18Y-106.68
X175.26Y-96.52
X175.26Y-106.68
T3
X144.78Y-43.18
X147.32Y-43.18
T4
X25.4Y-38.1
X25.4Y-40.64
X25.4Y-43.18
X25.4Y-45.72
X25.4Y-48.26
X25.4Y-50.8
X25.4Y-53.34
X25.4Y-55.88
X25.4Y-78.74
X25.4Y-81.28
X25.4Y-83.82
X25.4Y-86.36
X25.4Y-88.9
X25.4Y-91.44
X25.4Y-93.98
X25.4Y-96.52
X25.4Y-119.38
X25.4Y-121.92
X25.4Y-124.46
X25.4Y-127.0
X25.4Y-129.54
X25.4Y-132.08
X25.4Y-134.62
X25.4Y-137.16
X63.5Y-38.1
X63.5Y-40.64
X63.5Y-43.18
X63.5Y-45.72
X63.5Y-48.26
X63.5Y-50.8
X63.5Y-53.34
X63.5Y-55.88
X63.5Y-78.74
X63.5Y-81.28
X63.5Y-83.82
X63.5Y-86.36
X63.5Y-88.9
X63.5Y-91.44
X63.5Y-93.98
X63.5Y-96.52
X63.5Y-119.38
X63.5Y-121.92
X63.5Y-124.46
X63.5Y-127.0
X63.5Y-129.54
X63.5Y-132.08
X63.5Y-134.62
X63.5Y-137.16
X101.6Y-38.1
X101.6Y-40.64
X101.6Y-43.18
X101.6Y-45.72
X101.6Y-48.26
X101.6Y-50.8
X101.6Y-53.34
X101.6Y-55.88
X101.6Y-78.74
X101.6Y-81.28
X101.6Y-83.82
X101.6Y-86.36
X101.6Y-88.9
X101.6Y-91.44
X101.6Y-93.98
X101.6Y-96.52
X147.32Y-53.34
X147.32Y-55.88
X147.32Y-58.42
X147.32Y-60.96
X147.32Y-63.5
X147.32Y-66.04
X147.32Y-68.58
X147.32Y-71.12
X147.32Y-127.0
X149.86Y-127.0
X152.4Y-127.0
X154.94Y-127.0
X157.48Y-33.02
X157.48Y-35.56
X157.48Y-38.1
X157.48Y-40.64
X157.48Y-43.18
X157.48Y-45.72
X157.48Y-48.26
X157.48Y-50.8
X157.48Y-53.34
X157.48Y-55.88
X157.48Y-58.42
X157.48Y-60.96
X157.48Y-63.5
X157.48Y-66.04
X157.48Y-68.58
X157.48Y-127.0
X160.02Y-127.0
X162.56Y-127.0
X165.1Y-127.0
X172.72Y-33.02
X172.72Y-35.56
X172.72Y-38.1
X172.72Y-40.64
X172.72Y-43.18
X172.72Y-45.72
X172.72Y-48.26
X172.72Y-50.8
X172.72Y-53.34
X172.72Y-55.88
X172.72Y-58.42
X172.72Y-60.96
X172.72Y-63.5
X172.72Y-66.04
X172.72Y-68.58
T0
M30
